<svg width="38" height="39" viewBox="0 0 38 39" fill="none" xmlns="http://www.w3.org/2000/svg">
<circle cx="19" cy="19.5" r="19" fill="#D8F8FF"/>
<path d="M28.6228 21.0625H17.5V9.47607C17.5 9.04492 17.1634 8.68457 16.7622 8.68457C16.7298 8.68457 16.6965 8.68701 16.6633 8.69189C11.0819 9.51318 6.8145 14.5894 7.00621 20.6753C7.19699 26.7314 12.0583 31.7949 17.8717 31.9937C17.9978 31.998 18.1243 32 18.25 32C23.9236 32 28.604 27.6221 29.3756 21.9336C29.4379 21.4722 29.0699 21.0625 28.6228 21.0625ZM18.25 30.4375C18.1407 30.4375 18.0306 30.4355 17.9209 30.4316C12.8941 30.2598 8.67025 25.8599 8.50525 20.6235C8.35197 15.7412 11.5211 11.5034 16 10.4097V22.625H27.7256C26.7 27.1382 22.7729 30.4375 18.25 30.4375ZM20.5374 7.00195C20.521 7.00049 20.5046 7 20.4887 7C20.0827 7 19.7499 7.36328 19.7499 7.79248V18.7188H30.239C30.6674 18.7188 31.0274 18.3433 30.9984 17.8984C30.6116 12.0654 26.137 7.4043 20.5374 7.00195ZM21.2499 17.1562V8.65527C25.4334 9.32959 28.7629 12.7983 29.4107 17.1562H21.2499Z" fill="#142948"/>
</svg>
