<svg width="38" height="39" viewBox="0 0 38 39" fill="none" xmlns="http://www.w3.org/2000/svg">
<circle cx="19" cy="19.5" r="19" fill="#D8F8FF"/>
<path d="M18.9782 9.00042C18.8882 9.00339 18.8056 9.02051 18.7384 9.04322L9.43608 12.6954C9.17805 12.7979 8.99714 13.0642 9.00003 13.3374V25.6636C9.00004 25.9344 9.18031 26.1969 9.43608 26.2984L18.7384 29.9506C18.9041 30.0165 19.0959 30.0165 19.2616 29.9506L28.5639 26.2984C28.8197 26.1969 29 25.9344 29 25.6636V13.3374C29.0028 13.0642 28.822 12.7979 28.5639 12.6954L19.2616 9.04322C19.1657 9.00905 19.0682 8.99756 18.9782 9.00042ZM19 10.4199L26.4128 13.3303L23.7965 14.3646L16.7907 11.2902L19 10.4199ZM14.7413 12.0962L21.9651 15.0779L19 16.2478L11.5872 13.3374L14.7413 12.0962ZM10.3954 14.3503L18.3023 17.4533V28.3029L10.3954 25.1928V14.3503ZM27.6046 14.3503V25.1928L19.6977 28.3029V17.4533L22.7209 16.2692V19.5005L24.5814 18.8157V15.5344L27.6046 14.3503Z" fill="#142948"/>
</svg>
