<svg width="38" height="39" viewBox="0 0 38 39" fill="none" xmlns="http://www.w3.org/2000/svg">
<circle cx="19" cy="19.5" r="19" fill="#D8F8FF"/>
<g clip-path="url(#clip0)">
<path d="M11.0556 23.25H8.61111C8.27347 23.25 8 23.5297 8 23.875V28.875C8 29.2203 8.27347 29.5 8.61111 29.5H11.0556C11.3932 29.5 11.6667 29.2203 11.6667 28.875V23.875C11.6667 23.5297 11.3932 23.25 11.0556 23.25ZM10.4444 28.25H9.22222V24.5H10.4444V28.25ZM29.3889 17H26.9444C26.6068 17 26.3333 17.2797 26.3333 17.625V28.875C26.3333 29.2203 26.6068 29.5 26.9444 29.5H29.3889C29.7265 29.5 30 29.2203 30 28.875V17.625C30 17.2797 29.7265 17 29.3889 17ZM28.7778 28.25H27.5556V18.25H28.7778V28.25ZM27.203 12.9641C27.4837 13.1422 27.8118 13.25 28.1667 13.25C29.1792 13.25 30 12.4105 30 11.375C30 10.3395 29.1792 9.5 28.1667 9.5C27.1541 9.5 26.3333 10.3395 26.3333 11.375C26.3333 11.5902 26.3761 11.7934 26.4414 11.9859L23.0192 14.7859C22.7385 14.6074 22.4104 14.4996 22.0556 14.4996C21.7007 14.4996 21.3726 14.6074 21.0919 14.7859L17.6697 11.9859C17.735 11.7938 17.7778 11.5902 17.7778 11.375C17.7778 10.3395 16.957 9.5 15.9444 9.5C14.9319 9.5 14.1111 10.3395 14.1111 11.375C14.1111 11.6641 14.1802 11.9344 14.2944 12.1789L10.6194 15.9375C10.3803 15.8207 10.116 15.75 9.83333 15.75C8.8208 15.75 8 16.5895 8 17.625C8 18.6605 8.8208 19.5 9.83333 19.5C10.8459 19.5 11.6667 18.6605 11.6667 17.625C11.6667 17.3359 11.5975 17.0656 11.4833 16.8211L15.1584 13.0625C15.3975 13.1793 15.6618 13.25 15.9444 13.25C16.2993 13.25 16.6274 13.1422 16.9081 12.9637L20.3303 15.7637C20.265 15.9563 20.2222 16.1598 20.2222 16.375C20.2222 17.4105 21.043 18.25 22.0556 18.25C23.0681 18.25 23.8889 17.4105 23.8889 16.375C23.8889 16.1598 23.8461 15.9563 23.7808 15.7637L27.203 12.9641ZM28.1667 10.75C28.5035 10.75 28.7778 11.0305 28.7778 11.375C28.7778 11.7195 28.5035 12 28.1667 12C27.8298 12 27.5556 11.7195 27.5556 11.375C27.5556 11.0305 27.8298 10.75 28.1667 10.75ZM9.83333 18.25C9.49646 18.25 9.22222 17.9695 9.22222 17.625C9.22222 17.2805 9.49646 17 9.83333 17C10.1702 17 10.4444 17.2805 10.4444 17.625C10.4444 17.9695 10.1702 18.25 9.83333 18.25ZM15.9444 12C15.6076 12 15.3333 11.7195 15.3333 11.375C15.3333 11.0305 15.6076 10.75 15.9444 10.75C16.2813 10.75 16.5556 11.0305 16.5556 11.375C16.5556 11.7195 16.2813 12 15.9444 12ZM22.0556 17C21.7187 17 21.4444 16.7195 21.4444 16.375C21.4444 16.0305 21.7187 15.75 22.0556 15.75C22.3924 15.75 22.6667 16.0305 22.6667 16.375C22.6667 16.7195 22.3924 17 22.0556 17ZM17.1667 17H14.7222C14.3846 17 14.1111 17.2797 14.1111 17.625V28.875C14.1111 29.2203 14.3846 29.5 14.7222 29.5H17.1667C17.5043 29.5 17.7778 29.2203 17.7778 28.875V17.625C17.7778 17.2797 17.5043 17 17.1667 17ZM16.5556 28.25H15.3333V18.25H16.5556V28.25ZM23.2778 22H20.8333C20.4957 22 20.2222 22.2797 20.2222 22.625V28.875C20.2222 29.2203 20.4957 29.5 20.8333 29.5H23.2778C23.6154 29.5 23.8889 29.2203 23.8889 28.875V22.625C23.8889 22.2797 23.6154 22 23.2778 22ZM22.6667 28.25H21.4444V23.25H22.6667V28.25Z" fill="black"/>
</g>
<defs>
<clipPath id="clip0">
<rect width="22" height="20" fill="white" transform="translate(8 9.5)"/>
</clipPath>
</defs>
</svg>
