<svg width="38" height="38" viewBox="0 0 38 38" fill="none" xmlns="http://www.w3.org/2000/svg">
<circle cx="19" cy="19" r="19" fill="#D8F8FF"/>
<path d="M26.8571 11.25H24.7143V9.01562C24.7143 8.73203 24.4732 8.5 24.1786 8.5H23.8214C23.5268 8.5 23.2857 8.73203 23.2857 9.01562V11.25H14.7143V9.01562C14.7143 8.73203 14.4732 8.5 14.1786 8.5H13.8214C13.5268 8.5 13.2857 8.73203 13.2857 9.01562V11.25H11.1429C9.95982 11.25 9 12.1738 9 13.3125V28.4375C9 29.5762 9.95982 30.5 11.1429 30.5H26.8571C28.0402 30.5 29 29.5762 29 28.4375V13.3125C29 12.1738 28.0402 11.25 26.8571 11.25ZM11.1429 12.625H26.8571C27.25 12.625 27.5714 12.9344 27.5714 13.3125V15.375H10.4286V13.3125C10.4286 12.9344 10.75 12.625 11.1429 12.625ZM26.8571 29.125H11.1429C10.75 29.125 10.4286 28.8156 10.4286 28.4375V16.75H27.5714V28.4375C27.5714 28.8156 27.25 29.125 26.8571 29.125ZM15.6071 22.25H13.8214C13.5268 22.25 13.2857 22.018 13.2857 21.7344V20.0156C13.2857 19.732 13.5268 19.5 13.8214 19.5H15.6071C15.9018 19.5 16.1429 19.732 16.1429 20.0156V21.7344C16.1429 22.018 15.9018 22.25 15.6071 22.25ZM19.8929 22.25H18.1071C17.8125 22.25 17.5714 22.018 17.5714 21.7344V20.0156C17.5714 19.732 17.8125 19.5 18.1071 19.5H19.8929C20.1875 19.5 20.4286 19.732 20.4286 20.0156V21.7344C20.4286 22.018 20.1875 22.25 19.8929 22.25ZM24.1786 22.25H22.3929C22.0982 22.25 21.8571 22.018 21.8571 21.7344V20.0156C21.8571 19.732 22.0982 19.5 22.3929 19.5H24.1786C24.4732 19.5 24.7143 19.732 24.7143 20.0156V21.7344C24.7143 22.018 24.4732 22.25 24.1786 22.25ZM19.8929 26.375H18.1071C17.8125 26.375 17.5714 26.143 17.5714 25.8594V24.1406C17.5714 23.857 17.8125 23.625 18.1071 23.625H19.8929C20.1875 23.625 20.4286 23.857 20.4286 24.1406V25.8594C20.4286 26.143 20.1875 26.375 19.8929 26.375ZM15.6071 26.375H13.8214C13.5268 26.375 13.2857 26.143 13.2857 25.8594V24.1406C13.2857 23.857 13.5268 23.625 13.8214 23.625H15.6071C15.9018 23.625 16.1429 23.857 16.1429 24.1406V25.8594C16.1429 26.143 15.9018 26.375 15.6071 26.375ZM24.1786 26.375H22.3929C22.0982 26.375 21.8571 26.143 21.8571 25.8594V24.1406C21.8571 23.857 22.0982 23.625 22.3929 23.625H24.1786C24.4732 23.625 24.7143 23.857 24.7143 24.1406V25.8594C24.7143 26.143 24.4732 26.375 24.1786 26.375Z" fill="#142948"/>
</svg>
