<svg width="38" height="39" viewBox="0 0 38 39" fill="none" xmlns="http://www.w3.org/2000/svg">
<circle cx="19" cy="19.5" r="19" fill="#D8F8FF"/>
<path d="M30.6684 14.7037L23.5682 13.747L20.3948 7.80008C19.8262 6.74005 18.1787 6.72658 17.6052 7.80008L14.4318 13.747L7.33161 14.7037C6.05834 14.8744 5.54806 16.3252 6.47142 17.1561L11.6082 21.7825L10.3933 28.3179C10.1746 29.4992 11.5208 30.384 12.6482 29.8315L19 26.7458L25.3518 29.8315C26.4792 30.3795 27.8254 29.4992 27.6067 28.3179L26.3918 21.7825L31.5286 17.1561C32.4519 16.3252 31.9417 14.8744 30.6684 14.7037ZM24.7249 21.2795L26.0759 28.5559L19 25.1243L11.929 28.5604L13.28 21.284L7.55516 16.1231L15.4621 15.063L19 8.43789L22.5379 15.063L30.4448 16.1231L24.7249 21.2795Z" fill="#142948"/>
</svg>
