<svg width="38" height="38" viewBox="0 0 38 38" fill="none" xmlns="http://www.w3.org/2000/svg">
<circle cx="19" cy="19" r="19" fill="#D8F8FF"/>
<g clip-path="url(#clip0)">
<path d="M29.3148 23.1942C28.0023 21.9464 27.002 20.6405 27.002 16.2145C27.002 12.4833 24.0316 9.44109 20.252 9.07266V8.25C20.252 8.05109 20.173 7.86032 20.0324 7.71967C19.8917 7.57902 19.7009 7.5 19.502 7.5C19.3031 7.5 19.1124 7.57902 18.9717 7.71967C18.8311 7.86032 18.752 8.05109 18.752 8.25V9.07313C14.9702 9.44109 12.0006 12.4833 12.0006 16.2145C12.0006 20.6395 10.997 21.9464 9.68735 23.1942C9.36761 23.4948 9.14609 23.8849 9.05183 24.3135C8.95756 24.7421 8.99494 25.1891 9.15907 25.5961C9.32616 26.0132 9.61511 26.3703 9.98822 26.6208C10.3613 26.8712 10.8013 27.0034 11.2506 27H27.7506C28.2003 27.0033 28.6404 26.8708 29.0136 26.6199C29.3867 26.369 29.6755 26.0114 29.8422 25.5938C30.0059 25.1872 30.0432 24.7406 29.9491 24.3125C29.855 23.8844 29.634 23.4947 29.3148 23.1942ZM27.7506 25.5H11.2506C10.5841 25.5 10.2498 24.728 10.72 24.2812C12.3541 22.725 13.5006 20.9841 13.5006 16.2145C13.5006 13.0561 16.1828 10.5 19.5006 10.5C22.8184 10.5 25.5006 13.0556 25.5006 16.2145C25.5006 20.9648 26.6359 22.7152 28.2794 24.2803C28.7523 24.7294 28.4144 25.5 27.7506 25.5ZM19.5006 30C19.1028 30 18.7213 29.842 18.44 29.5607C18.1587 29.2794 18.0006 28.8978 18.0006 28.5H16.5006C16.5006 29.2956 16.8167 30.0587 17.3793 30.6213C17.9419 31.1839 18.705 31.5 19.5006 31.5C20.2963 31.5 21.0593 31.1839 21.6219 30.6213C22.1846 30.0587 22.5006 29.2956 22.5006 28.5H21.0006C21.0006 28.8978 20.8426 29.2794 20.5613 29.5607C20.28 29.842 19.8985 30 19.5006 30ZM19.1022 19.5H19.8991C19.9942 19.4988 20.0854 19.462 20.1548 19.397C20.2242 19.3319 20.2667 19.2433 20.2741 19.1484L20.6022 13.8984C20.6054 13.8473 20.5981 13.796 20.5807 13.7477C20.5633 13.6995 20.5361 13.6553 20.501 13.618C20.4659 13.5806 20.4234 13.5509 20.3763 13.5306C20.3292 13.5103 20.2785 13.4999 20.2272 13.5H18.7741C18.7228 13.4999 18.672 13.5103 18.6249 13.5306C18.5778 13.5509 18.5354 13.5806 18.5003 13.618C18.4651 13.6553 18.438 13.6995 18.4206 13.7477C18.4032 13.796 18.3959 13.8473 18.3991 13.8984L18.7272 19.1484C18.7332 19.2438 18.7753 19.3332 18.845 19.3986C18.9147 19.4639 19.0067 19.5002 19.1022 19.5ZM19.5006 20.625C19.2781 20.625 19.0606 20.691 18.8756 20.8146C18.6906 20.9382 18.5464 21.1139 18.4613 21.3195C18.3761 21.525 18.3538 21.7512 18.3972 21.9695C18.4407 22.1877 18.5478 22.3882 18.7051 22.5455C18.8625 22.7028 19.0629 22.81 19.2812 22.8534C19.4994 22.8968 19.7256 22.8745 19.9311 22.7894C20.1367 22.7042 20.3124 22.56 20.436 22.375C20.5597 22.19 20.6256 21.9725 20.6256 21.75C20.6256 21.4516 20.5071 21.1655 20.2961 20.9545C20.0851 20.7435 19.799 20.625 19.5006 20.625Z" fill="#142948"/>
</g>
<defs>
<clipPath id="clip0">
<rect width="21" height="24" fill="white" transform="translate(9 7.5)"/>
</clipPath>
</defs>
</svg>
