<svg width="238" height="151" viewBox="0 0 238 151" fill="none" xmlns="http://www.w3.org/2000/svg">
<mask id="mask0" mask-type="alpha" maskUnits="userSpaceOnUse" x="0" y="0" width="238" height="151">
<path d="M0 3C0 1.34314 1.34315 0 3 0H235C236.657 0 238 1.34315 238 3V148C238 149.657 236.657 151 235 151H3.00001C1.34315 151 0 149.657 0 148V3Z" fill="#093373"/>
</mask>
<g mask="url(#mask0)">
<g filter="url(#filter0_dd)">
<rect width="71.197" height="38.0835" rx="5" transform="matrix(1 -0.000835978 -0.157114 0.98758 51.9551 40.042)" fill="#3466BC"/>
</g>
<g filter="url(#filter1_d)">
<g clip-path="url(#clip0)">
<g filter="url(#filter2_d)">
<path d="M81.4276 58.2055C81.6229 56.5705 83.1245 55.2436 84.7814 55.2418L180.608 55.1351C183.37 55.132 185.344 57.3386 185.019 60.0635L178.365 115.755C178.105 117.935 176.103 119.704 173.893 119.707L79.0666 119.812C76.305 119.815 74.3303 117.609 74.6558 114.884L81.4276 58.2055Z" fill="url(#paint0_linear)"/>
</g>
</g>
</g>
<g filter="url(#filter3_dd)">
<rect width="69.1286" height="38.0835" rx="5" transform="matrix(1 -0.000835978 -0.157114 0.98758 51.9805 37.6289)" fill="url(#paint1_linear)"/>
</g>
<g opacity="0.1" filter="url(#filter4_d)">
<g clip-path="url(#clip1)">
<rect width="60.799" height="3.24575" rx="1.62288" transform="matrix(1 -0.000835967 -0.157115 0.98758 55.5234 40.8311)" fill="white"/>
<rect width="60.799" height="3.24575" rx="1.62288" transform="matrix(1 -0.000835967 -0.157115 0.98758 55.5234 40.8311)" fill="white"/>
<path d="M92.9365 40.7262C92.8059 42.6499 92.1313 44.1751 90.9127 45.3018L92.2126 46.9196L90.6445 48.2003L89.2145 46.3959C88.2241 46.791 87.1545 46.9496 86.0058 46.8716C84.0755 46.7406 82.5532 46.0325 81.4389 44.7475C80.3254 43.4506 79.8356 41.8167 79.9694 39.8457C80.1032 37.8747 80.8094 36.322 82.088 35.1876C83.3658 34.065 84.9698 33.5692 86.9001 33.7003C88.8304 33.8313 90.3527 34.5394 91.467 35.8244C92.5805 37.1213 93.0703 38.7552 92.9365 40.7262ZM86.1825 44.2692C86.6207 44.299 87.034 44.2559 87.4226 44.14L86.1901 42.5801L87.757 41.3171L89.0557 42.9526C89.5024 42.3308 89.7598 41.5183 89.828 40.5151C89.9113 39.2877 89.6691 38.299 89.1014 37.549C88.5463 36.7881 87.7537 36.3726 86.7234 36.3027C85.705 36.2335 84.8697 36.5325 84.2177 37.1996C83.5546 37.8542 83.1806 38.8069 83.0957 40.058C83.0108 41.309 83.2525 42.3036 83.8211 43.0418C84.3769 43.7909 85.1641 44.2001 86.1825 44.2692ZM98.1465 47.6248C96.7136 47.5275 95.6005 47.0132 94.8071 46.082C94.0138 45.1507 93.666 43.9651 93.7638 42.5253C93.8631 41.0618 94.3684 39.9282 95.2795 39.1245C96.1907 38.3208 97.3627 37.9676 98.7956 38.0649C100.051 38.1502 101.053 38.5502 101.801 39.265C102.562 39.9688 102.97 40.8857 103.024 42.0158L100.271 41.8288C100.18 40.886 99.6377 40.3808 98.6429 40.3133C97.3758 40.2272 96.685 41.0281 96.5704 42.7158C96.4566 44.3917 97.0332 45.2727 98.3004 45.3587C99.3661 45.4311 99.9931 44.9579 100.181 43.9392L102.935 44.1261C102.773 45.2771 102.254 46.1726 101.378 46.8127C100.503 47.4409 99.4254 47.7116 98.1465 47.6248ZM104.318 47.8304L104.974 38.1643L107.621 38.344L107.367 42.0794L108.646 42.1663C110.127 42.2668 111.206 42.5772 111.884 43.0975C112.563 43.6179 112.87 44.356 112.805 45.312C112.741 46.2444 112.359 46.9713 111.657 47.4928C110.957 48.0025 109.848 48.2059 108.332 48.103L104.318 47.8304ZM113.999 48.4877L114.655 38.8216L117.302 39.0013L116.646 48.6674L113.999 48.4877ZM108.314 46.2699C108.835 46.3052 109.262 46.2394 109.595 46.0722C109.939 45.9059 110.126 45.6044 110.156 45.1677C110.204 44.4596 109.63 44.0649 108.434 43.9837L107.244 43.9029L107.088 46.1866L108.314 46.2699ZM128.492 42.3043C128.456 42.8236 128.26 43.255 127.904 43.5983C127.559 43.9425 127.064 44.146 126.417 44.2088L126.412 44.2796C127.082 44.408 127.605 44.6748 127.982 45.0798C128.371 45.4856 128.545 45.9835 128.505 46.5737C128.467 47.1284 128.286 47.614 127.96 48.0306C127.646 48.448 127.167 48.7593 126.523 48.9645C125.878 49.1698 125.047 49.2378 124.028 49.1687L119.41 48.8551L120.066 39.189L124.684 39.5026C125.442 39.554 126.112 39.6825 126.693 39.8879C127.286 40.0824 127.742 40.3742 128.061 40.7634C128.391 41.1533 128.535 41.667 128.492 42.3043ZM125.795 42.3347C125.835 41.7445 125.387 41.4177 124.452 41.3542L122.587 41.2276L122.457 43.1395L124.02 43.2457C124.576 43.2835 125.002 43.2353 125.297 43.1012C125.604 42.956 125.77 42.7005 125.795 42.3347ZM125.779 46.2463C125.805 45.8686 125.675 45.5871 125.39 45.4018C125.106 45.2047 124.668 45.086 124.076 45.0458L122.335 44.9276L122.18 47.2113L123.974 47.3331C124.472 47.3669 124.886 47.3061 125.218 47.1508C125.562 46.9845 125.749 46.683 125.779 46.2463ZM133.832 50.101C132.387 50.003 131.326 49.6819 130.649 49.138C129.985 48.5831 129.649 47.7481 129.641 46.633L132.341 46.8164C132.356 47.3035 132.487 47.6562 132.734 47.8745C132.992 48.0936 133.418 48.2233 134.01 48.2635C135.04 48.3335 135.575 48.0734 135.615 47.4833C135.635 47.2 135.537 46.9799 135.321 46.823C135.107 46.6543 134.7 46.5023 134.103 46.3668L132.926 46.0913C130.887 45.6327 129.92 44.6304 130.025 43.0843C130.088 42.1637 130.491 41.4797 131.235 41.0322C131.98 40.573 133.016 40.3884 134.342 40.4784C137.078 40.6642 138.428 41.8052 138.393 43.9014L135.817 43.7265C135.864 42.8641 135.33 42.3952 134.217 42.3196C133.282 42.2561 132.794 42.5135 132.755 43.0918C132.737 43.3514 132.83 43.5593 133.034 43.7154C133.237 43.8715 133.568 44.0006 134.025 44.1028L135.379 44.3904C136.469 44.6304 137.259 44.9983 137.749 45.4939C138.239 45.9896 138.457 46.6387 138.402 47.4413C138.338 48.3855 137.903 49.0911 137.098 49.5581C136.306 50.0141 135.217 50.1951 133.832 50.101ZM153.728 41.7947C154.699 41.8606 155.448 42.2079 155.977 42.8366C156.518 43.4543 156.752 44.3002 156.679 45.3742L156.273 51.358L153.502 51.1698L153.871 45.7349C153.941 44.6962 153.485 44.1436 152.502 44.0768C152.005 44.0431 151.579 44.1802 151.225 44.4881C150.871 44.7961 150.673 45.251 150.633 45.8529L150.286 50.9515L147.515 50.7634L148.136 41.6284L150.836 41.8117L150.748 43.1041C151.526 42.1491 152.52 41.7126 153.728 41.7947ZM161.708 51.9938C160.263 51.8957 159.202 51.5747 158.526 51.0307C157.861 50.4758 157.525 49.6408 157.518 48.5258L160.218 48.7091C160.232 49.1962 160.363 49.5489 160.61 49.7672C160.869 49.9864 161.294 50.116 161.886 50.1562C162.917 50.2262 163.452 49.9661 163.492 49.376C163.511 49.0927 163.413 48.8727 163.198 48.7158C162.983 48.547 162.577 48.395 161.979 48.2596L160.802 47.984C158.764 47.5254 157.797 46.5231 157.902 44.977C157.964 44.0564 158.367 43.3724 159.112 42.925C159.857 42.4657 160.892 42.2811 162.219 42.3712C164.954 42.5569 166.304 43.6979 166.269 45.7941L163.693 45.6192C163.74 44.7569 163.207 44.2879 162.094 44.2123C161.158 44.1488 160.671 44.4062 160.631 44.9845C160.614 45.2442 160.707 45.452 160.91 45.6081C161.114 45.7642 161.444 45.8934 161.901 45.9955L163.256 46.2831C164.346 46.5232 165.136 46.891 165.626 47.3867C166.115 47.8823 166.333 48.5314 166.278 49.334C166.214 50.2782 165.78 50.9838 164.975 51.4508C164.182 51.9069 163.094 52.0878 161.708 51.9938Z" fill="white"/>
</g>
<rect x="0.421443" y="0.493372" width="59.799" height="2.24575" rx="1.12288" transform="matrix(1 -0.000835967 -0.157115 0.98758 55.601 40.8375)" stroke="#A2BCCF"/>
</g>
<g opacity="0.1" filter="url(#filter5_d)">
<g clip-path="url(#clip2)">
<rect width="31.1595" height="3.46213" rx="1.73107" transform="matrix(1 -0.000835967 -0.157115 0.98758 54.623 44.8916)" fill="white"/>
<rect width="31.1595" height="3.46213" rx="1.73107" transform="matrix(1 -0.000835967 -0.157115 0.98758 54.623 44.8916)" fill="white"/>
<path d="M92.0186 44.8931C91.8879 46.8169 91.2133 48.3421 89.9948 49.4688L91.2947 51.0865L89.7266 52.3673L88.2966 50.5629C87.3061 50.958 86.2365 51.1166 85.0878 51.0386C83.1576 50.9075 81.6353 50.1995 80.5209 48.9145C79.4074 47.6176 78.9176 45.9837 79.0514 44.0127C79.1852 42.0417 79.8914 40.489 81.17 39.3546C82.4478 38.232 84.0519 37.7362 85.9821 37.8673C87.9124 37.9983 89.4347 38.7064 90.549 39.9914C91.6625 41.2882 92.1524 42.9222 92.0186 44.8931ZM85.2645 48.4362C85.7027 48.466 86.116 48.4229 86.5046 48.307L85.2721 46.7471L86.839 45.4841L88.1378 47.1196C88.5845 46.4978 88.8419 45.6853 88.91 44.6821C88.9933 43.4546 88.7511 42.466 88.1834 41.716C87.6284 40.9551 86.8357 40.5396 85.8054 40.4697C84.787 40.4005 83.9518 40.6995 83.2998 41.3666C82.6367 42.0212 82.2627 42.9739 82.1777 44.225C82.0928 45.476 82.3346 46.4706 82.9031 47.2088C83.459 47.9579 84.2461 48.3671 85.2645 48.4362ZM97.2285 51.7918C95.7956 51.6945 94.6825 51.1802 93.8892 50.249C93.0958 49.3177 92.7481 48.1321 92.8458 46.6922C92.9452 45.2288 93.4504 44.0952 94.3616 43.2915C95.2727 42.4878 96.4447 42.1346 97.8776 42.2319C99.1329 42.3172 100.135 42.7172 100.883 43.432C101.645 44.1358 102.052 45.0527 102.106 46.1828L99.353 45.9958C99.2624 45.053 98.7197 44.5478 97.725 44.4803C96.4578 44.3942 95.767 45.1951 95.6524 46.8828C95.5386 48.5587 96.1153 49.4397 97.3824 49.5257C98.4482 49.5981 99.0751 49.1249 99.2633 48.1061L102.017 48.2931C101.855 49.4441 101.336 50.3396 100.46 50.9797C99.5847 51.6079 98.5075 51.8786 97.2285 51.7918ZM103.4 51.9974L104.056 42.3313L106.703 42.511L106.449 46.2464L107.728 46.3333C109.209 46.4338 110.288 46.7442 110.966 47.2645C111.645 47.7849 111.952 48.523 111.887 49.479C111.823 50.4114 111.441 51.1383 110.739 51.6598C110.039 52.1695 108.93 52.3729 107.414 52.27L103.4 51.9974ZM113.081 52.6547L113.737 42.9886L116.384 43.1683L115.728 52.8344L113.081 52.6547ZM107.396 50.4369C107.917 50.4722 108.344 50.4064 108.677 50.2392C109.021 50.0729 109.208 49.7714 109.238 49.3347C109.286 48.6266 108.712 48.2319 107.516 48.1507L106.326 48.0699L106.171 50.3536L107.396 50.4369ZM127.574 46.4713C127.538 46.9906 127.342 47.422 126.986 47.7653C126.641 48.1095 126.146 48.313 125.499 48.3758L125.494 48.4466C126.164 48.575 126.687 48.8417 127.064 49.2468C127.453 49.6526 127.627 50.1505 127.587 50.7407C127.549 51.2954 127.368 51.781 127.042 52.1976C126.728 52.615 126.249 52.9263 125.605 53.1315C124.96 53.3368 124.129 53.4048 123.11 53.3356L118.492 53.0221L119.148 43.356L123.767 43.6696C124.524 43.721 125.194 43.8495 125.775 44.0549C126.368 44.2493 126.824 44.5412 127.143 44.9303C127.473 45.3203 127.617 45.834 127.574 46.4713ZM124.877 46.5016C124.917 45.9115 124.469 45.5847 123.534 45.5212L121.669 45.3946L121.539 47.3065L123.102 47.4127C123.659 47.4505 124.084 47.4023 124.379 47.2682C124.686 47.123 124.852 46.8675 124.877 46.5016ZM124.861 50.4133C124.887 50.0356 124.757 49.7541 124.472 49.5688C124.188 49.3716 123.75 49.253 123.158 49.2128L121.417 49.0946L121.262 51.3783L123.056 51.5001C123.554 51.5339 123.968 51.4731 124.3 51.3178C124.644 51.1515 124.832 50.85 124.861 50.4133ZM132.914 54.268C131.469 54.1699 130.408 53.8489 129.731 53.305C129.067 52.7501 128.731 51.9151 128.723 50.8L131.423 50.9833C131.438 51.4705 131.569 51.8232 131.816 52.0415C132.074 52.2606 132.5 52.3903 133.092 52.4305C134.122 52.5005 134.657 52.2404 134.697 51.6503C134.717 51.367 134.619 51.1469 134.403 50.99C134.189 50.8213 133.783 50.6692 133.185 50.5338L132.008 50.2583C129.969 49.7997 129.002 48.7974 129.107 47.2513C129.17 46.3307 129.573 45.6467 130.317 45.1992C131.062 44.74 132.098 44.5554 133.424 44.6454C136.16 44.8312 137.51 45.9722 137.475 48.0684L134.899 47.8935C134.946 47.0311 134.412 46.5622 133.299 46.4866C132.364 46.4231 131.876 46.6805 131.837 47.2588C131.819 47.5184 131.912 47.7263 132.116 47.8824C132.319 48.0385 132.65 48.1676 133.107 48.2698L134.461 48.5574C135.551 48.7974 136.341 49.1653 136.831 49.6609C137.321 50.1566 137.539 50.8057 137.484 51.6083C137.42 52.5524 136.985 53.2581 136.18 53.7251C135.388 54.1811 134.299 54.3621 132.914 54.268ZM152.81 45.9616C153.781 46.0276 154.53 46.3749 155.059 47.0036C155.6 47.6213 155.834 48.4672 155.761 49.5412L155.355 55.5249L152.584 55.3368L152.953 49.9018C153.023 48.8632 152.567 48.3106 151.584 48.2438C151.087 48.2101 150.661 48.3472 150.307 48.6551C149.953 48.9631 149.755 49.418 149.715 50.0199L149.368 55.1185L146.597 54.9304L147.218 45.7954L149.918 45.9787L149.83 47.2711C150.608 46.3161 151.602 45.8796 152.81 45.9616ZM160.79 56.1608C159.345 56.0627 158.284 55.7417 157.608 55.1977C156.943 54.6428 156.607 53.8078 156.6 52.6927L159.3 52.8761C159.314 53.3632 159.445 53.7159 159.692 53.9342C159.951 54.1534 160.376 54.283 160.968 54.3232C161.999 54.3932 162.534 54.1331 162.574 53.543C162.593 53.2597 162.495 53.0396 162.28 52.8827C162.065 52.714 161.659 52.562 161.061 52.4265L159.885 52.151C157.846 51.6924 156.879 50.6901 156.984 49.144C157.046 48.2234 157.449 47.5394 158.194 47.092C158.939 46.6327 159.974 46.4481 161.301 46.5382C164.036 46.7239 165.386 47.8649 165.351 49.9611L162.775 49.7862C162.822 48.9239 162.289 48.4549 161.176 48.3793C160.24 48.3158 159.753 48.5732 159.713 49.1515C159.696 49.4111 159.789 49.619 159.992 49.7751C160.196 49.9312 160.526 50.0604 160.983 50.1625L162.338 50.4501C163.428 50.6901 164.218 51.058 164.708 51.5537C165.197 52.0493 165.415 52.6984 165.361 53.501C165.296 54.4452 164.862 55.1508 164.057 55.6178C163.265 56.0739 162.176 56.2548 160.79 56.1608Z" fill="white"/>
</g>
<rect x="0.421443" y="0.493372" width="30.1595" height="2.46213" rx="1.23107" transform="matrix(1 -0.000835967 -0.157115 0.98758 54.7006 44.8981)" stroke="#A2BCCF"/>
</g>
<path d="M55.3136 38.3103L80.9564 75.2102L51.0415 75.2352C48.2827 75.2375 46.3963 73.0326 46.826 70.3081L51.6765 39.5564C51.8443 38.4923 52.8547 37.6282 53.9322 37.6273C54.5068 37.6268 55.0123 37.8767 55.3136 38.3103Z" fill="url(#paint2_linear)" fill-opacity="0.15"/>
<g filter="url(#filter6_d)">
<g clip-path="url(#clip3)">
<g filter="url(#filter7_d)">
<path d="M79.1268 58.3647C79.3221 56.7297 80.8237 55.4028 82.4806 55.401L180.64 55.2917C182.297 55.2898 183.482 56.6138 183.286 58.2487L176.257 117.08L72.0978 117.196L79.1268 58.3647Z" fill="url(#paint3_linear)"/>
</g>
<path opacity="0.1" d="M81.2506 120.071L81.2661 120.101L110.08 102.671C112.234 101.368 113.641 99.5586 114.285 97.2794L114.285 97.2772L119.982 77.2001L81.2506 120.071ZM81.2506 120.071L79.9011 120.887M81.2506 120.071L79.9011 120.887M79.9011 120.887C75.1782 123.744 69.7065 122.597 67.5911 118.482C65.4756 114.367 67.4515 108.714 72.1744 105.857L110.013 82.968L113.648 80.7687C116.546 79.0161 118.565 76.4201 119.436 73.3211C119.436 73.3202 119.437 73.3192 119.437 73.3183L125.148 53.2751L125.15 53.2712M79.9011 120.887L125.15 53.2712M125.15 53.2712C125.792 50.9951 127.198 49.184 129.388 47.8588M125.15 53.2712L129.388 47.8588M129.388 47.8588L159.518 29.633M129.388 47.8588L159.518 29.633M159.518 29.633C164.24 26.7761 169.712 27.9235 171.828 32.0386M159.518 29.633L171.828 32.0386M171.828 32.0386C173.943 36.1536 171.967 41.8063 167.244 44.6633M171.828 32.0386L167.244 44.6633M167.244 44.6633L147.686 56.4948M167.244 44.6633L147.686 56.4948M147.686 56.4948L135.87 63.6425M147.686 56.4948L135.87 63.6425M135.87 63.6425L125.804 69.7314M135.87 63.6425L125.804 69.7314M125.804 69.7314C122.915 71.479 120.875 74.0407 119.983 77.1979L125.804 69.7314ZM124.725 26.3977L124.723 26.4068L119.009 46.456L119.008 46.46C118.367 48.733 116.929 50.5657 114.769 51.8723C105.816 57.2886 87.7094 68.2168 69.6016 79.146C51.4947 90.0745 33.3863 101.004 24.4307 106.421C19.7079 109.278 14.2361 108.131 12.1207 104.016C10.0052 99.9008 11.9811 94.2481 16.704 91.3912L16.7366 91.3715L16.7376 91.3708L118.386 29.98L118.388 29.9794C121.285 28.2267 123.304 25.6307 124.175 22.5318C124.175 22.5308 124.176 22.5299 124.176 22.5289L129.885 2.49485C129.885 2.49376 129.886 2.49265 129.886 2.49155C130.546 0.228901 131.98 -1.6312 134.127 -2.93049L140.726 -6.92184C145.448 -9.77878 150.92 -8.63132 153.036 -4.51627C155.151 -0.401226 153.175 5.25147 148.452 8.10841L130.543 18.9421C127.642 20.6968 125.63 23.291 124.725 26.3977ZM120.378 104.004L120.38 104C121.022 101.724 122.428 99.9131 124.618 98.5879L124.723 98.5244L124.828 98.4609L124.933 98.3975L125.038 98.334L125.143 98.2705L125.248 98.207L125.353 98.1436L125.458 98.0801L125.563 98.0166L125.668 97.9531L125.773 97.8897L125.877 97.8262L125.982 97.7627L126.087 97.6992L126.192 97.6358L126.297 97.5723L126.402 97.5088L126.507 97.4454L126.612 97.3819L126.717 97.3184L126.822 97.255L126.927 97.1915L127.032 97.128L127.137 97.0645L127.241 97.0011L127.346 96.9376L127.451 96.8741L127.556 96.8107L127.661 96.7472L127.766 96.6837L127.871 96.6203L127.976 96.5568L128.081 96.4934L128.186 96.4299L128.291 96.3664L128.396 96.303L128.5 96.2395L128.605 96.176L128.71 96.1126L128.815 96.0491L128.92 95.9857L129.025 95.9222L129.13 95.8587L129.235 95.7953L129.34 95.7318L129.445 95.6683L129.55 95.6049L129.654 95.5414L129.759 95.478L129.864 95.4145L129.969 95.3511L130.074 95.2876L130.179 95.2241L130.284 95.1607L130.389 95.0972L130.494 95.0338L130.599 94.9703L130.703 94.9069L130.808 94.8434L130.913 94.78L131.018 94.7165L131.123 94.6531L131.228 94.5896L131.333 94.5261L131.438 94.4627L131.543 94.3992L131.647 94.3358L131.752 94.2723L131.857 94.2089L131.962 94.1454L132.067 94.082L132.172 94.0185L132.277 93.9551L132.382 93.8916L132.487 93.8282L132.591 93.7647L132.696 93.7013L132.801 93.6378L132.906 93.5744L133.011 93.511L133.116 93.4475L133.221 93.3841L133.326 93.3206L133.431 93.2572L133.535 93.1937L133.64 93.1303L133.745 93.0668L133.85 93.0034L133.955 92.9399L134.06 92.8765L134.165 92.813L134.27 92.7496L134.374 92.6862L134.479 92.6227L134.584 92.5593L134.689 92.4958L134.794 92.4324L134.899 92.369L135.004 92.3055L135.109 92.2421L135.214 92.1786L135.318 92.1152L135.423 92.0517L135.528 91.9883L135.633 91.9249L135.738 91.8614L135.843 91.798L135.948 91.7346L136.052 91.6711L136.157 91.6077L136.262 91.5442L136.367 91.4808L136.472 91.4174L136.577 91.3539L136.682 91.2905L136.787 91.227L136.891 91.1636L136.996 91.1002L137.101 91.0367L137.206 90.9733L137.311 90.9099L137.416 90.8464L137.521 90.783L137.626 90.7196L137.73 90.6561L137.835 90.5927L137.94 90.5293L138.045 90.4658L138.15 90.4024L138.255 90.339L138.36 90.2755L138.464 90.2121L138.569 90.1487L138.674 90.0852L138.779 90.0218L138.884 89.9584L138.989 89.8949L139.094 89.8315L139.198 89.7681L139.303 89.7046L139.408 89.6412L139.513 89.5778L139.618 89.5143L139.723 89.4509L139.828 89.3875L139.932 89.324L140.037 89.2606L140.142 89.1972L140.247 89.1338L140.352 89.0703L140.457 89.0069L140.562 88.9435L140.666 88.88L140.771 88.8166L140.876 88.7532L140.981 88.6898L141.086 88.6263L141.191 88.5629L141.296 88.4995L141.4 88.4361L141.505 88.3726L141.61 88.3092L141.715 88.2458L141.82 88.1823L141.925 88.1189L142.029 88.0555L142.134 87.9921L142.239 87.9286L142.344 87.8652L142.449 87.8018L142.554 87.7384L142.659 87.6749L142.763 87.6115L142.868 87.5481L142.973 87.4847L143.078 87.4212L143.183 87.3578L143.288 87.2944L143.393 87.231L143.497 87.1675L143.602 87.1041L143.707 87.0407L143.812 86.9773L143.917 86.9138L144.022 86.8504L144.126 86.787L144.231 86.7236L144.336 86.6601L144.441 86.5967L144.546 86.5333L144.651 86.4699L144.756 86.4065L144.86 86.343L144.965 86.2796L145.07 86.2162L145.175 86.1528L145.28 86.0893L145.385 86.0259L145.489 85.9625L145.594 85.8991L145.699 85.8357L145.804 85.7722L145.909 85.7088L146.014 85.6454L146.118 85.582L146.223 85.5186L146.328 85.4551L146.433 85.3917L146.538 85.3283L146.643 85.2649L146.748 85.2014L146.852 85.138L146.957 85.0746L147.062 85.0112L147.167 84.9478L147.272 84.8843L147.377 84.8209L147.481 84.7575L147.586 84.6941L147.691 84.6307L147.796 84.5672L147.901 84.5038L148.006 84.4404L148.11 84.377L148.215 84.3136L148.32 84.2501L148.425 84.1867L148.53 84.1233L148.635 84.0599L148.739 83.9965L148.844 83.933L148.949 83.8696L149.054 83.8062L149.159 83.7428L149.264 83.6794L149.369 83.6159L149.473 83.5525L149.578 83.4891L149.683 83.4257L149.788 83.3623L149.893 83.2989L149.998 83.2354L150.102 83.172L150.207 83.1086L150.312 83.0452L150.417 82.9818L150.522 82.9183L150.627 82.8549L150.731 82.7915L150.836 82.7281L150.941 82.6647L151.046 82.6012L151.151 82.5378L151.256 82.4744L151.36 82.411L151.465 82.3476L151.57 82.2841L151.675 82.2207L151.78 82.1573L151.885 82.0939L151.989 82.0305L152.094 81.9671L152.199 81.9036L152.304 81.8402L152.409 81.7768L152.514 81.7134L152.619 81.65L152.723 81.5865L152.828 81.5231L152.933 81.4597L153.038 81.3963L153.143 81.3329L153.248 81.2694L153.352 81.206L153.457 81.1426L153.562 81.0792L153.667 81.0158L153.772 80.9523L153.877 80.8889L153.981 80.8255L154.086 80.7621L154.191 80.6987L154.296 80.6352L154.401 80.5718L154.506 80.5084L154.61 80.445L154.715 80.3816L154.82 80.3181L154.925 80.2547L155.03 80.1913L155.135 80.1279L155.24 80.0645L155.344 80.001L155.449 79.9376L155.554 79.8742L155.659 79.8108L155.764 79.7474L155.869 79.6839L155.973 79.6205L156.078 79.5571L156.183 79.4937L156.288 79.4303L156.393 79.3668L156.498 79.3034L156.602 79.24L156.707 79.1766L156.812 79.1132L156.917 79.0497L157.022 78.9863L157.127 78.9229L157.231 78.8595L157.336 78.7961L157.441 78.7326L157.546 78.6692L157.651 78.6058L157.756 78.5424L157.861 78.4789L157.965 78.4155L158.07 78.3521L158.175 78.2887L158.28 78.2253L158.385 78.1618L158.49 78.0984L158.594 78.035L158.699 77.9716L158.804 77.9081L158.909 77.8447L159.014 77.7813L159.119 77.7179L159.224 77.6544L159.328 77.591L159.433 77.5276L159.538 77.4642L159.643 77.4008L159.748 77.3373L159.853 77.2739L159.957 77.2105L160.062 77.1471L160.167 77.0836L160.272 77.0202L160.377 76.9568L160.482 76.8933L160.587 76.8299L160.691 76.7665L160.796 76.7031L160.901 76.6396L161.006 76.5762L161.111 76.5128L161.216 76.4494L161.321 76.3859L161.425 76.3225L161.53 76.2591L161.635 76.1957L161.74 76.1322L161.845 76.0688L161.95 76.0054L162.054 75.9419L162.159 75.8785L162.264 75.8151L162.369 75.7517L162.474 75.6882L162.579 75.6248L162.684 75.5614L162.788 75.4979L162.893 75.4345L162.998 75.3711L163.103 75.3076L163.208 75.2442L163.313 75.1808L163.418 75.1174L163.522 75.0539L163.627 74.9905L163.732 74.9271L163.837 74.8636L163.942 74.8002L164.047 74.7368L164.152 74.6733L164.256 74.6099L164.361 74.5465L164.466 74.483L164.571 74.4196L164.676 74.3562L164.781 74.2927L164.886 74.2293L164.991 74.1659L165.095 74.1024L165.2 74.039L165.305 73.9756L165.41 73.9121L165.515 73.8487L165.62 73.7853L165.725 73.7218L165.829 73.6584L165.934 73.595L166.039 73.5315L166.144 73.4681L166.249 73.4047L166.354 73.3412L166.459 73.2778L166.564 73.2143L166.668 73.1509L166.773 73.0875L166.878 73.024L166.983 72.9606L167.088 72.8971L167.193 72.8337L167.298 72.7703L167.402 72.7068L167.507 72.6434L167.612 72.5799L167.717 72.5165L167.822 72.4531L167.927 72.3896L168.032 72.3262L168.137 72.2627L168.241 72.1993L168.346 72.1359L168.451 72.0724L168.556 72.009L168.661 71.9455L168.766 71.8821L168.871 71.8186L168.976 71.7552L169.081 71.6917L169.185 71.6283L169.29 71.5649L169.395 71.5014L169.5 71.438L169.605 71.3745L169.71 71.3111L169.815 71.2476L169.92 71.1842L170.024 71.1207L170.129 71.0573L170.234 70.9938L170.339 70.9304L170.444 70.8669L170.549 70.8035L170.654 70.74L170.759 70.6766L170.864 70.6131L170.968 70.5497L171.073 70.4862L171.178 70.4228L171.283 70.3593L171.388 70.2959L171.493 70.2324L171.598 70.169L171.703 70.1055L171.808 70.0421L171.912 69.9786L172.017 69.9152L172.122 69.8517L172.227 69.7883L172.332 69.7248L172.437 69.6614L172.542 69.5979L172.647 69.5344L172.752 69.471L172.857 69.4075L172.961 69.3441L173.066 69.2806L173.171 69.2172L173.276 69.1537L173.381 69.0902L173.486 69.0268L173.591 68.9633L173.696 68.8999L173.801 68.8364L173.906 68.7729L174.011 68.7095L174.115 68.646L174.22 68.5826L174.325 68.5191L174.43 68.4556L174.535 68.3922L174.64 68.3287L174.745 68.2652L174.85 68.2018L174.955 68.1383L175.06 68.0748L175.165 68.0114L175.269 67.9479L175.374 67.8845L175.479 67.821L175.584 67.7575L175.689 67.6941L175.794 67.6306L175.899 67.5671L176.004 67.5036L176.109 67.4402L176.214 67.3767L176.319 67.3132L176.424 67.2498L176.528 67.1863L176.633 67.1228L176.738 67.0594L176.843 66.9959L176.948 66.9324L177.053 66.8689L177.158 66.8055L177.263 66.742L177.368 66.6785L177.473 66.615L177.578 66.5516L177.683 66.4881L177.788 66.4246L177.893 66.3611L177.998 66.2977L178.102 66.2342L178.207 66.1707L178.312 66.1072C183.035 63.2503 188.507 64.3977 190.622 68.5128C192.738 72.6278 190.762 78.2805 186.039 81.1375L186.005 81.1578L121 120.481C118.116 122.225 116.069 124.787 115.211 127.934L109.503 147.965C109.502 147.967 109.502 147.968 109.502 147.969C108.842 150.232 107.408 152.092 105.26 153.391L98.6621 157.382C93.9393 160.239 88.4676 159.092 86.3521 154.977C84.2366 150.861 86.2126 145.209 90.9354 142.352L108.878 131.498C111.775 129.745 113.795 127.15 114.666 124.051C114.666 124.05 114.666 124.048 114.667 124.047L120.378 104.004Z" stroke="url(#paint4_linear)" stroke-opacity="0.5" stroke-width="3"/>
<rect opacity="0.8" width="5.47869" height="3.83094" rx="1.91547" transform="matrix(1.00004 -0.0011132 -0.117898 0.986793 80.7734 110.45)" fill="#1D2228"/>
<rect opacity="0.8" width="81.9352" height="2.8249" rx="1.41245" transform="matrix(1.00004 -0.0011132 -0.117898 0.986793 87.0918 111.208)" fill="#1D2228"/>
<path d="M82.5037 113.165L82.709 111.446L84.3156 112.328L82.5037 113.165Z" fill="white"/>
<g opacity="0.1" filter="url(#filter8_d)">
<rect width="20.5995" height="4.47278" rx="2.23639" transform="matrix(1.00004 -0.0011132 -0.117898 0.986793 163.377 110.393)" fill="white"/>
<rect width="20.5995" height="4.47278" rx="2.23639" transform="matrix(1.00004 -0.0011132 -0.117898 0.986793 163.377 110.393)" fill="white"/>
<rect x="0.441073" y="0.49284" width="19.5995" height="3.47278" rx="1.73639" transform="matrix(1.00004 -0.0011132 -0.117898 0.986793 163.435 110.4)" stroke="#A2BCCF"/>
</g>
<path d="M136.577 80.8345L184.724 46.5982L174.594 131.388L134.634 96.2711C130.109 92.2948 131.058 84.7593 136.577 80.8345Z" fill="#FD9C73" fill-opacity="0.7"/>
<path d="M157.508 85.5595L157.999 81.4536C158.172 80.0016 158.818 78.6086 159.793 77.581C160.768 76.5534 161.993 75.9753 163.199 75.974C164.404 75.9726 165.491 76.5481 166.221 77.5738C166.951 78.5996 167.264 79.9915 167.09 81.4434L166.6 85.5493C166.426 87.0013 165.781 88.3943 164.806 89.4219C163.831 90.4495 162.605 91.0276 161.4 91.0289C160.194 91.0303 159.107 90.4548 158.377 89.4291C157.647 88.4033 157.335 87.0114 157.508 85.5595ZM172.282 85.543C172.325 85.18 172.247 84.832 172.065 84.5756C171.882 84.3192 171.61 84.1753 171.309 84.1756C171.008 84.176 170.701 84.3205 170.457 84.5774C170.214 84.8343 170.052 85.1826 170.009 85.5455C169.705 88.0864 168.576 90.5242 166.87 92.3225C165.163 94.1209 163.019 95.1325 160.909 95.1348C158.8 95.1372 156.897 94.1301 155.62 92.3351C154.342 90.54 153.795 88.1041 154.099 85.5633C154.142 85.2003 154.064 84.8523 153.882 84.5959C153.699 84.3394 153.427 84.1956 153.126 84.1959C152.825 84.1962 152.518 84.3407 152.275 84.5976C152.031 84.8546 151.869 85.2028 151.826 85.5658C151.468 88.5939 152.048 91.5136 153.455 93.7685C154.862 96.0233 156.998 97.4557 159.455 97.7926L159.119 100.611L155.71 100.614C155.408 100.615 155.102 100.759 154.858 101.016C154.614 101.273 154.453 101.621 154.41 101.984C154.366 102.347 154.444 102.695 154.627 102.952C154.809 103.208 155.081 103.352 155.382 103.352L164.474 103.342C164.775 103.341 165.082 103.197 165.325 102.94C165.569 102.683 165.73 102.335 165.774 101.972C165.817 101.609 165.739 101.261 165.557 101.004C165.374 100.748 165.102 100.604 164.801 100.604L161.392 100.608L161.728 97.7901C164.267 97.4476 166.746 96.0101 168.693 93.7515C170.639 91.4929 171.916 88.5712 172.282 85.543Z" fill="white"/>
<g opacity="0.2" filter="url(#filter9_d)">
<rect width="60.9599" height="6.61347" rx="3.30674" transform="matrix(-1.00004 0.0011132 -0.117898 0.986793 149.477 60.2236)" fill="white"/>
<rect width="60.9599" height="6.61347" rx="3.30674" transform="matrix(-1.00004 0.0011132 -0.117898 0.986793 149.477 60.2236)" fill="white"/>
</g>
<g opacity="0.2" filter="url(#filter10_d)">
<rect width="37.7952" height="6.61348" rx="3.30674" transform="matrix(-1.00004 0.0011132 -0.117898 0.986793 125.238 69.2246)" fill="white"/>
<rect width="37.7952" height="6.61348" rx="3.30674" transform="matrix(-1.00004 0.0011132 -0.117898 0.986793 125.238 69.2246)" fill="white"/>
</g>
</g>
</g>
<path d="M85.3457 56.5296L132.973 117.128L77.18 117.191C74.4213 117.194 72.4472 114.991 72.7685 112.269L79.08 58.7975C79.3011 56.9243 81.0209 55.4026 82.9193 55.4005C83.8976 55.3994 84.7803 55.8101 85.3457 56.5296Z" fill="url(#paint5_linear)" fill-opacity="0.4"/>
<circle r="9.68523" transform="matrix(0.76718 0.641432 -0.76718 0.641432 148.271 41.0723)" fill="#C4C4C4"/>
<circle r="9.68523" transform="matrix(0.76718 0.641432 -0.76718 0.641432 148.271 40.2119)" fill="url(#paint6_linear)"/>
<g filter="url(#filter11_d)">
<rect width="47.742" height="5.05874" rx="2.52937" transform="matrix(0.999997 0.00246895 -0.106092 0.994356 34.0352 83.1084)" fill="#F1F1F1"/>
<rect width="47.742" height="5.05874" rx="2.52937" transform="matrix(0.999997 0.00246895 -0.106092 0.994356 34.0352 83.1084)" fill="#F1F1F1"/>
<rect width="47.742" height="5.05874" rx="2.52937" transform="matrix(0.999997 0.00246895 -0.106092 0.994356 34.0352 83.1084)" fill="#A9A7A7"/>
<rect width="47.742" height="5.05874" rx="2.52937" transform="matrix(0.999997 0.00246894 -0.106092 0.994356 33.207 82.6045)" fill="#F1F1F1"/>
<rect width="47.742" height="5.05874" rx="2.52937" transform="matrix(0.999997 0.00246894 -0.106092 0.994356 33.207 82.6045)" fill="#F1F1F1"/>
<rect width="47.742" height="5.05874" rx="2.52937" transform="matrix(0.999997 0.00246894 -0.106092 0.994356 33.207 82.6045)" fill="#F1F1F1"/>
</g>
<g filter="url(#filter12_d)">
<rect width="42.3374" height="4.49575" rx="2.24787" transform="matrix(0.999997 0.00257834 -0.10576 0.994392 43.3594 93.4941)" fill="#F1F1F1"/>
<rect width="42.3374" height="4.49575" rx="2.24787" transform="matrix(0.999997 0.00257834 -0.10576 0.994392 43.3594 93.4941)" fill="#F1F1F1"/>
<rect width="42.3374" height="4.49575" rx="2.24787" transform="matrix(0.999997 0.00257834 -0.10576 0.994392 43.3594 93.4941)" fill="#A9A7A7"/>
<rect width="42.3374" height="4.49575" rx="2.24787" transform="matrix(0.999997 0.00257834 -0.10576 0.994392 42.6211 93.0449)" fill="#F1F1F1"/>
<rect width="42.3374" height="4.49575" rx="2.24787" transform="matrix(0.999997 0.00257834 -0.10576 0.994392 42.6211 93.0449)" fill="#F1F1F1"/>
<rect width="42.3374" height="4.49575" rx="2.24787" transform="matrix(0.999997 0.00257834 -0.10576 0.994392 42.6211 93.0449)" fill="#F1F1F1"/>
</g>
<g opacity="0.8" clip-path="url(#clip4)">
<path d="M53.409 67.6762L59.0952 67.8023C59.5828 67.8131 60.0622 67.6889 60.4279 67.4571C60.7936 67.2253 61.0157 66.9049 61.0453 66.5662L61.2753 63.9378C61.3049 63.5992 61.1396 63.2701 60.8158 63.023C60.4919 62.776 60.0361 62.6311 59.5485 62.6203L53.8623 62.4942C53.6184 62.4888 53.374 62.5169 53.1431 62.5768C52.9122 62.6368 52.6994 62.7275 52.5168 62.8436C52.3342 62.9598 52.1854 63.0992 52.079 63.2538C51.9726 63.4084 51.9107 63.5752 51.8968 63.7446L51.6694 66.3437C51.6537 66.5131 51.6863 66.6819 51.7652 66.8406C51.8442 66.9994 51.9681 67.1448 52.1297 67.2686C52.2913 67.3924 52.4875 67.4921 52.707 67.5621C52.9266 67.632 53.1651 67.6708 53.409 67.6762V67.6762Z" fill="#ECECEC"/>
<path d="M64.2147 63.6776L62.6904 64.1711C62.5611 64.2129 62.45 64.2783 62.3693 64.3601C62.2885 64.4419 62.2412 64.5369 62.2327 64.6346L62.1208 65.9131C62.1125 66.0104 62.1429 66.1067 62.2087 66.1914C62.2744 66.2761 62.373 66.346 62.4936 66.3934L63.9257 66.9541C64.0168 66.9902 64.1205 67.0092 64.2268 67.0092C64.333 67.0091 64.4383 66.9901 64.5324 66.9539C64.6264 66.9177 64.7062 66.8656 64.7639 66.8026C64.8216 66.7395 64.8553 66.6677 64.8618 66.594L65.0818 64.0793C65.0884 64.0057 65.0676 63.9327 65.0214 63.8673C64.9752 63.802 64.9052 63.7465 64.8181 63.7061C64.731 63.6658 64.6297 63.6419 64.524 63.6369C64.4183 63.6319 64.3118 63.6459 64.2147 63.6776Z" fill="#ECECEC"/>
</g>
<path d="M154.863 45.1179C154.168 46.1531 153.204 47.0067 152.06 47.5987C150.916 48.1908 149.631 48.5019 148.324 48.503C147.017 48.5019 145.731 48.1908 144.588 47.5987C143.444 47.0067 142.48 46.1531 141.785 45.1179C142.055 44.6126 142.434 44.1074 143.082 43.8042C143.731 43.5011 144.487 43.2485 145.406 43.1474C146.354 43.0132 147.311 42.9457 148.27 42.9453C150.161 42.9453 152.323 43.1474 153.512 43.8042C154.7 44.461 154.592 44.5621 154.863 45.1179Z" fill="#FF6067"/>
<path d="M150.216 42.9971V41.2793H146.434V42.9971C145.839 43.0982 145.461 43.2498 145.461 43.654C145.461 44.0581 146.542 45.2202 148.325 45.2202C150.108 45.2202 151.189 44.4118 151.189 43.654C151.189 42.8961 150.811 43.0982 150.216 42.9971Z" fill="#FBCBAB"/>
<path d="M145.999 39.208C145.999 38.6522 145.729 38.0459 145.459 38.0459C145.189 38.0459 144.811 38.1469 144.811 38.7027C144.811 39.2585 144.919 39.5616 145.027 39.8143C145.135 40.0669 145.297 40.2185 145.459 40.2185C145.621 40.2185 145.999 39.7132 145.999 39.208Z" fill="#FBCBAB"/>
<path d="M150.648 39.208C150.648 38.6522 150.919 38.0459 151.189 38.0459C151.459 38.0459 151.837 38.1469 151.837 38.7027C151.837 39.2585 151.729 39.5616 151.621 39.8143C151.513 40.0669 151.351 40.2185 151.189 40.2185C151.027 40.2185 150.648 39.7132 150.648 39.208Z" fill="#ECA182"/>
<path d="M150.212 41.6836V42.593L149.942 42.7951L149.186 43.2499L148.483 43.3509C147.943 43.3509 147.673 43.2499 147.024 42.7951C146.799 42.6366 146.599 42.4496 146.43 42.2394V41.6836L146.862 42.0373C147.51 42.492 147.781 42.593 148.321 42.593L149.024 42.492L149.78 42.0373L150.212 41.6836Z" fill="#DB9172"/>
<path d="M148.322 34.71C146.053 34.71 145.404 36.5794 145.404 38.853C145.404 40.3687 145.891 41.4297 146.863 42.036C147.836 42.6423 147.782 42.5918 148.322 42.5918C148.863 42.5918 149.133 42.4907 149.781 42.036C150.43 41.5813 151.24 40.3182 151.24 38.853C151.24 36.5794 150.592 34.71 148.322 34.71Z" fill="#FBCBAB"/>
<path d="M148.325 34.71H148.217C150.216 34.7605 150.811 36.5794 150.811 38.853C150.811 40.3687 150.324 41.4297 149.46 42.036C148.595 42.6423 148.649 42.5918 148.217 42.5918H148.325C148.865 42.5918 149.135 42.4907 149.784 42.036C150.432 41.5813 151.243 40.3182 151.243 38.853C151.243 36.5794 150.594 34.71 148.325 34.71Z" fill="#ECA182"/>
<path d="M151.944 35.7714C151.89 35.3672 151.511 34.3062 151.025 34.2052C150.539 34.1041 150.647 34.3062 150.431 34.2052C150.214 34.1041 149.62 33.3968 149.08 33.1442C148.539 32.8915 147.458 32.6389 146.756 32.841C146.053 33.0431 145.999 33.6999 145.675 33.9526C145.351 34.2052 144.811 34.4578 144.811 34.8115C144.811 35.1651 145.027 35.7714 145.027 36.2767C145.027 36.7819 144.757 37.0851 144.865 37.4893C144.973 37.8935 145.189 37.8935 145.243 38.0956C145.297 38.2977 145.297 38.5503 145.405 38.6513C145.513 38.7524 145.621 37.3882 145.675 36.984C145.729 36.5798 145.837 36.2262 146.053 35.8725C146.27 35.5188 146.81 35.5188 147.296 35.6199C147.783 35.7209 148.215 35.822 148.701 35.7714C149.188 35.7209 149.674 35.5188 150.16 35.7209C150.647 35.923 150.863 36.3777 150.971 36.7819C151.079 37.1861 150.971 38.4492 151.241 38.5503C151.511 38.6513 151.403 38.1461 151.673 37.944C151.944 37.7419 151.944 37.6409 151.998 37.3882C152.052 37.1356 151.998 36.3272 151.944 35.7714Z" fill="#1D2247"/>
<path d="M151.189 38.651C150.919 38.55 150.973 37.0848 150.919 36.8827C150.865 36.6806 150.541 36.0238 150.109 35.8217C149.676 35.6196 149.136 35.8217 148.65 35.8722C148.163 35.9227 147.731 35.8217 147.245 35.7206C146.758 35.6196 146.326 35.569 146.002 35.9732C145.677 36.3774 145.677 36.6806 145.623 37.0848C145.569 37.489 145.569 38.8026 145.407 38.8026C145.245 38.8026 145.677 37.7416 145.731 37.3879C145.786 37.0342 145.84 36.529 146.11 36.2259C146.38 35.9227 147.028 35.8217 147.461 35.9732C147.893 36.1248 148.163 36.2259 148.65 36.1753C149.136 36.1248 149.622 35.9732 150.109 36.1248C150.595 36.2764 150.811 36.6301 150.919 37.1353C151.027 37.6405 150.919 38.55 151.189 38.651Z" fill="#DB9172"/>
<path d="M147.134 33.4475C147.999 32.7907 150.16 34.0033 149.836 33.7507C149.512 33.498 149.35 33.2959 149.08 33.1949C148.809 33.0938 147.458 32.6896 146.756 32.8917C146.053 33.0938 145.999 33.7507 145.675 34.0033C145.351 34.2559 144.811 34.5085 144.811 34.8622C144.811 35.2159 145.027 35.8222 145.027 36.3274C145.027 36.8327 144.757 37.1358 144.865 37.54C144.973 37.9442 144.865 37.1358 145.189 36.7316C145.513 36.3274 145.459 35.6706 145.189 35.0138C144.919 34.357 145.189 34.0033 146.216 34.1549C147.242 34.3064 146.972 33.5486 147.134 33.4475Z" fill="#373F85"/>
<g opacity="0.2" filter="url(#filter13_d)">
<rect width="42.047" height="4.3125" rx="2.15625" transform="matrix(-1 2.62268e-07 2.62268e-07 1 206.092 34.6455)" fill="white"/>
<rect width="42.047" height="4.3125" rx="2.15625" transform="matrix(-1 2.62268e-07 2.62268e-07 1 206.092 34.6455)" fill="white"/>
</g>
<g opacity="0.2" filter="url(#filter14_d)">
<rect width="21.5626" height="3.23438" rx="1.61719" transform="matrix(-1 2.62268e-07 2.62268e-07 1 185.607 42.1924)" fill="white"/>
<rect width="21.5626" height="3.23438" rx="1.61719" transform="matrix(-1 2.62268e-07 2.62268e-07 1 185.607 42.1924)" fill="white"/>
</g>
<path d="M144.524 32.0039C143.235 32.4154 142.055 33.0351 141.053 33.8277C140.05 34.6203 139.244 35.5703 138.68 36.6234C138.116 37.6766 137.806 38.8122 137.768 39.9655C137.729 41.1188 137.962 42.2672 138.454 43.3451C138.946 44.423 139.688 45.4093 140.636 46.2476C141.584 47.086 142.72 47.7601 143.979 48.2313C145.239 48.7026 146.597 48.9618 147.977 48.9942C149.356 49.0265 150.73 48.8314 152.019 48.42L148.271 40.2119L144.524 32.0039Z" fill="url(#paint7_linear)"/>
</g>
<defs>
<filter id="filter0_dd" x="-179.305" y="-182.014" width="527.733" height="489.662" filterUnits="userSpaceOnUse" color-interpolation-filters="sRGB">
<feFlood flood-opacity="0" result="BackgroundImageFix"/>
<feColorMatrix in="SourceAlpha" type="matrix" values="0 0 0 0 0 0 0 0 0 0 0 0 0 0 0 0 0 0 127 0"/>
<feOffset dy="4"/>
<feGaussianBlur stdDeviation="113"/>
<feColorMatrix type="matrix" values="0 0 0 0 0.390675 0 0 0 0 0.402439 0 0 0 0 0.508319 0 0 0 0.15 0"/>
<feBlend mode="normal" in2="BackgroundImageFix" result="effect1_dropShadow"/>
<feColorMatrix in="SourceAlpha" type="matrix" values="0 0 0 0 0 0 0 0 0 0 0 0 0 0 0 0 0 0 127 0"/>
<feOffset dy="4"/>
<feGaussianBlur stdDeviation="70"/>
<feColorMatrix type="matrix" values="0 0 0 0 0 0 0 0 0 0 0 0 0 0 0 0 0 0 0.25 0"/>
<feBlend mode="normal" in2="effect1_dropShadow" result="effect2_dropShadow"/>
<feBlend mode="normal" in="SourceGraphic" in2="effect2_dropShadow" result="shape"/>
</filter>
<filter id="filter1_d" x="8.40039" y="-11.4814" width="256.426" height="201.801" filterUnits="userSpaceOnUse" color-interpolation-filters="sRGB">
<feFlood flood-opacity="0" result="BackgroundImageFix"/>
<feColorMatrix in="SourceAlpha" type="matrix" values="0 0 0 0 0 0 0 0 0 0 0 0 0 0 0 0 0 0 127 0"/>
<feOffset dy="4"/>
<feGaussianBlur stdDeviation="25"/>
<feColorMatrix type="matrix" values="0 0 0 0 0 0 0 0 0 0 0 0 0 0 0 0 0 0 0.2 0"/>
<feBlend mode="normal" in2="BackgroundImageFix" result="effect1_dropShadow"/>
<feBlend mode="normal" in="SourceGraphic" in2="effect1_dropShadow" result="shape"/>
</filter>
<filter id="filter2_d" x="59.6211" y="44.1348" width="140.433" height="94.6772" filterUnits="userSpaceOnUse" color-interpolation-filters="sRGB">
<feFlood flood-opacity="0" result="BackgroundImageFix"/>
<feColorMatrix in="SourceAlpha" type="matrix" values="0 0 0 0 0 0 0 0 0 0 0 0 0 0 0 0 0 0 127 0"/>
<feOffset dy="4"/>
<feGaussianBlur stdDeviation="7.5"/>
<feColorMatrix type="matrix" values="0 0 0 0 0.390675 0 0 0 0 0.402439 0 0 0 0 0.508319 0 0 0 0.15 0"/>
<feBlend mode="normal" in2="BackgroundImageFix" result="effect1_dropShadow"/>
<feBlend mode="normal" in="SourceGraphic" in2="effect1_dropShadow" result="shape"/>
</filter>
<filter id="filter3_dd" x="-179.279" y="-184.425" width="525.665" height="489.66" filterUnits="userSpaceOnUse" color-interpolation-filters="sRGB">
<feFlood flood-opacity="0" result="BackgroundImageFix"/>
<feColorMatrix in="SourceAlpha" type="matrix" values="0 0 0 0 0 0 0 0 0 0 0 0 0 0 0 0 0 0 127 0"/>
<feOffset dy="4"/>
<feGaussianBlur stdDeviation="113"/>
<feColorMatrix type="matrix" values="0 0 0 0 0.390675 0 0 0 0 0.402439 0 0 0 0 0.508319 0 0 0 0.15 0"/>
<feBlend mode="normal" in2="BackgroundImageFix" result="effect1_dropShadow"/>
<feColorMatrix in="SourceAlpha" type="matrix" values="0 0 0 0 0 0 0 0 0 0 0 0 0 0 0 0 0 0 127 0"/>
<feOffset dy="4"/>
<feGaussianBlur stdDeviation="70"/>
<feColorMatrix type="matrix" values="0 0 0 0 0 0 0 0 0 0 0 0 0 0 0 0 0 0 0.25 0"/>
<feBlend mode="normal" in2="effect1_dropShadow" result="effect2_dropShadow"/>
<feBlend mode="normal" in="SourceGraphic" in2="effect2_dropShadow" result="shape"/>
</filter>
<filter id="filter4_d" x="37.0137" y="22.7803" width="101.309" height="43.2563" filterUnits="userSpaceOnUse" color-interpolation-filters="sRGB">
<feFlood flood-opacity="0" result="BackgroundImageFix"/>
<feColorMatrix in="SourceAlpha" type="matrix" values="0 0 0 0 0 0 0 0 0 0 0 0 0 0 0 0 0 0 127 0"/>
<feOffset dx="2" dy="2"/>
<feGaussianBlur stdDeviation="10"/>
<feColorMatrix type="matrix" values="0 0 0 0 0.237587 0 0 0 0 0.386796 0 0 0 0 0.495833 0 0 0 0.15 0"/>
<feBlend mode="normal" in2="BackgroundImageFix" result="effect1_dropShadow"/>
<feBlend mode="normal" in="SourceGraphic" in2="effect1_dropShadow" result="shape"/>
</filter>
<filter id="filter5_d" x="36.0781" y="26.8652" width="71.7034" height="43.4452" filterUnits="userSpaceOnUse" color-interpolation-filters="sRGB">
<feFlood flood-opacity="0" result="BackgroundImageFix"/>
<feColorMatrix in="SourceAlpha" type="matrix" values="0 0 0 0 0 0 0 0 0 0 0 0 0 0 0 0 0 0 127 0"/>
<feOffset dx="2" dy="2"/>
<feGaussianBlur stdDeviation="10"/>
<feColorMatrix type="matrix" values="0 0 0 0 0.237587 0 0 0 0 0.386796 0 0 0 0 0.495833 0 0 0 0.15 0"/>
<feBlend mode="normal" in2="BackgroundImageFix" result="effect1_dropShadow"/>
<feBlend mode="normal" in="SourceGraphic" in2="effect1_dropShadow" result="shape"/>
</filter>
<filter id="filter6_d" x="22.0977" y="9.28809" width="211.542" height="161.908" filterUnits="userSpaceOnUse" color-interpolation-filters="sRGB">
<feFlood flood-opacity="0" result="BackgroundImageFix"/>
<feColorMatrix in="SourceAlpha" type="matrix" values="0 0 0 0 0 0 0 0 0 0 0 0 0 0 0 0 0 0 127 0"/>
<feOffset dy="4"/>
<feGaussianBlur stdDeviation="25"/>
<feColorMatrix type="matrix" values="0 0 0 0 0 0 0 0 0 0 0 0 0 0 0 0 0 0 0.2 0"/>
<feBlend mode="normal" in2="BackgroundImageFix" result="effect1_dropShadow"/>
<feBlend mode="normal" in="SourceGraphic" in2="effect1_dropShadow" result="shape"/>
</filter>
<filter id="filter7_d" x="57.0977" y="44.292" width="141.21" height="91.9045" filterUnits="userSpaceOnUse" color-interpolation-filters="sRGB">
<feFlood flood-opacity="0" result="BackgroundImageFix"/>
<feColorMatrix in="SourceAlpha" type="matrix" values="0 0 0 0 0 0 0 0 0 0 0 0 0 0 0 0 0 0 127 0"/>
<feOffset dy="4"/>
<feGaussianBlur stdDeviation="7.5"/>
<feColorMatrix type="matrix" values="0 0 0 0 0.390675 0 0 0 0 0.402439 0 0 0 0 0.508319 0 0 0 0.15 0"/>
<feBlend mode="normal" in2="BackgroundImageFix" result="effect1_dropShadow"/>
<feBlend mode="normal" in="SourceGraphic" in2="effect1_dropShadow" result="shape"/>
</filter>
<filter id="filter8_d" x="144.85" y="92.3701" width="61.1278" height="44.4366" filterUnits="userSpaceOnUse" color-interpolation-filters="sRGB">
<feFlood flood-opacity="0" result="BackgroundImageFix"/>
<feColorMatrix in="SourceAlpha" type="matrix" values="0 0 0 0 0 0 0 0 0 0 0 0 0 0 0 0 0 0 127 0"/>
<feOffset dx="2" dy="2"/>
<feGaussianBlur stdDeviation="10"/>
<feColorMatrix type="matrix" values="0 0 0 0 0.237587 0 0 0 0 0.386796 0 0 0 0 0.495833 0 0 0 0.15 0"/>
<feBlend mode="normal" in2="BackgroundImageFix" result="effect1_dropShadow"/>
<feBlend mode="normal" in="SourceGraphic" in2="effect1_dropShadow" result="shape"/>
</filter>
<filter id="filter9_d" x="69.7344" y="42.2236" width="101.742" height="46.594" filterUnits="userSpaceOnUse" color-interpolation-filters="sRGB">
<feFlood flood-opacity="0" result="BackgroundImageFix"/>
<feColorMatrix in="SourceAlpha" type="matrix" values="0 0 0 0 0 0 0 0 0 0 0 0 0 0 0 0 0 0 127 0"/>
<feOffset dx="2" dy="2"/>
<feGaussianBlur stdDeviation="10"/>
<feColorMatrix type="matrix" values="0 0 0 0 0.237587 0 0 0 0 0.386796 0 0 0 0 0.495833 0 0 0 0.15 0"/>
<feBlend mode="normal" in2="BackgroundImageFix" result="effect1_dropShadow"/>
<feBlend mode="normal" in="SourceGraphic" in2="effect1_dropShadow" result="shape"/>
</filter>
<filter id="filter10_d" x="68.6621" y="51.2246" width="78.5765" height="46.5682" filterUnits="userSpaceOnUse" color-interpolation-filters="sRGB">
<feFlood flood-opacity="0" result="BackgroundImageFix"/>
<feColorMatrix in="SourceAlpha" type="matrix" values="0 0 0 0 0 0 0 0 0 0 0 0 0 0 0 0 0 0 127 0"/>
<feOffset dx="2" dy="2"/>
<feGaussianBlur stdDeviation="10"/>
<feColorMatrix type="matrix" values="0 0 0 0 0.237587 0 0 0 0 0.386796 0 0 0 0 0.495833 0 0 0 0.15 0"/>
<feBlend mode="normal" in2="BackgroundImageFix" result="effect1_dropShadow"/>
<feBlend mode="normal" in="SourceGraphic" in2="effect1_dropShadow" result="shape"/>
</filter>
<filter id="filter11_d" x="28.9238" y="79.6104" width="56.5988" height="13.6395" filterUnits="userSpaceOnUse" color-interpolation-filters="sRGB">
<feFlood flood-opacity="0" result="BackgroundImageFix"/>
<feColorMatrix in="SourceAlpha" type="matrix" values="0 0 0 0 0 0 0 0 0 0 0 0 0 0 0 0 0 0 127 0"/>
<feOffset dy="1"/>
<feGaussianBlur stdDeviation="2"/>
<feColorMatrix type="matrix" values="0 0 0 0 0 0 0 0 0 0 0 0 0 0 0 0 0 0 0.1 0"/>
<feBlend mode="normal" in2="BackgroundImageFix" result="effect1_dropShadow"/>
<feBlend mode="normal" in="SourceGraphic" in2="effect1_dropShadow" result="shape"/>
</filter>
<filter id="filter12_d" x="38.3711" y="90.0508" width="51.101" height="13.0173" filterUnits="userSpaceOnUse" color-interpolation-filters="sRGB">
<feFlood flood-opacity="0" result="BackgroundImageFix"/>
<feColorMatrix in="SourceAlpha" type="matrix" values="0 0 0 0 0 0 0 0 0 0 0 0 0 0 0 0 0 0 127 0"/>
<feOffset dy="1"/>
<feGaussianBlur stdDeviation="2"/>
<feColorMatrix type="matrix" values="0 0 0 0 0 0 0 0 0 0 0 0 0 0 0 0 0 0 0.1 0"/>
<feBlend mode="normal" in2="BackgroundImageFix" result="effect1_dropShadow"/>
<feBlend mode="normal" in="SourceGraphic" in2="effect1_dropShadow" result="shape"/>
</filter>
<filter id="filter13_d" x="146.045" y="16.6455" width="82.0471" height="44.3125" filterUnits="userSpaceOnUse" color-interpolation-filters="sRGB">
<feFlood flood-opacity="0" result="BackgroundImageFix"/>
<feColorMatrix in="SourceAlpha" type="matrix" values="0 0 0 0 0 0 0 0 0 0 0 0 0 0 0 0 0 0 127 0"/>
<feOffset dx="2" dy="2"/>
<feGaussianBlur stdDeviation="10"/>
<feColorMatrix type="matrix" values="0 0 0 0 0.237587 0 0 0 0 0.386796 0 0 0 0 0.495833 0 0 0 0.15 0"/>
<feBlend mode="normal" in2="BackgroundImageFix" result="effect1_dropShadow"/>
<feBlend mode="normal" in="SourceGraphic" in2="effect1_dropShadow" result="shape"/>
</filter>
<filter id="filter14_d" x="146.045" y="24.1924" width="61.5626" height="43.2344" filterUnits="userSpaceOnUse" color-interpolation-filters="sRGB">
<feFlood flood-opacity="0" result="BackgroundImageFix"/>
<feColorMatrix in="SourceAlpha" type="matrix" values="0 0 0 0 0 0 0 0 0 0 0 0 0 0 0 0 0 0 127 0"/>
<feOffset dx="2" dy="2"/>
<feGaussianBlur stdDeviation="10"/>
<feColorMatrix type="matrix" values="0 0 0 0 0.237587 0 0 0 0 0.386796 0 0 0 0 0.495833 0 0 0 0.15 0"/>
<feBlend mode="normal" in2="BackgroundImageFix" result="effect1_dropShadow"/>
<feBlend mode="normal" in="SourceGraphic" in2="effect1_dropShadow" result="shape"/>
</filter>
<linearGradient id="paint0_linear" x1="44.3485" y1="40.4062" x2="141.805" y2="74.4222" gradientUnits="userSpaceOnUse">
<stop stop-color="#FF6EC1"/>
<stop offset="1" stop-color="#BE6844"/>
</linearGradient>
<linearGradient id="paint1_linear" x1="34.5643" y1="0" x2="34.5643" y2="38.0835" gradientUnits="userSpaceOnUse">
<stop stop-color="#77F4D5"/>
<stop offset="1" stop-color="#2968FE"/>
<stop offset="1" stop-color="#0E81E1"/>
</linearGradient>
<linearGradient id="paint2_linear" x1="65.0327" y1="37.618" x2="65.0641" y2="75.2235" gradientUnits="userSpaceOnUse">
<stop stop-color="white" stop-opacity="0"/>
<stop offset="1" stop-color="white"/>
</linearGradient>
<linearGradient id="paint3_linear" x1="131.56" y1="55.3463" x2="131.629" y2="117.13" gradientUnits="userSpaceOnUse">
<stop stop-color="#FF6EC1"/>
<stop offset="1" stop-color="#F28F66"/>
</linearGradient>
<linearGradient id="paint4_linear" x1="74.2558" y1="116.747" x2="118.443" y2="33.0437" gradientUnits="userSpaceOnUse">
<stop stop-color="#A8ABB0"/>
<stop offset="1" stop-color="#7EF6FF"/>
</linearGradient>
<linearGradient id="paint5_linear" x1="102.208" y1="55.379" x2="102.277" y2="117.163" gradientUnits="userSpaceOnUse">
<stop stop-color="white" stop-opacity="0"/>
<stop offset="1" stop-color="white"/>
</linearGradient>
<linearGradient id="paint6_linear" x1="9.68523" y1="0" x2="9.68523" y2="19.3705" gradientUnits="userSpaceOnUse">
<stop stop-color="#69E7D6"/>
<stop offset="1" stop-color="#1CB9F2"/>
</linearGradient>
<linearGradient id="paint7_linear" x1="141.733" y1="33.3622" x2="151.233" y2="46.513" gradientUnits="userSpaceOnUse">
<stop stop-color="white" stop-opacity="0.58"/>
<stop offset="1" stop-color="white" stop-opacity="0"/>
</linearGradient>
<clipPath id="clip0">
<rect width="140.249" height="102.963" rx="5" transform="matrix(1 -0.000835969 -0.157115 0.98758 74.5781 34.6357)" fill="white"/>
</clipPath>
<clipPath id="clip1">
<rect width="60.799" height="3.24575" rx="1.62288" transform="matrix(1 -0.000835967 -0.157115 0.98758 55.5234 40.8311)" fill="white"/>
</clipPath>
<clipPath id="clip2">
<rect width="31.1595" height="3.46213" rx="1.73107" transform="matrix(1 -0.000835967 -0.157115 0.98758 54.623 44.8916)" fill="white"/>
</clipPath>
<clipPath id="clip3">
<rect width="104.155" height="62.6189" rx="5" transform="matrix(1.00004 -0.0011132 -0.117898 0.986793 79.4805 55.4043)" fill="white"/>
</clipPath>
<clipPath id="clip4">
<rect width="14.2246" height="9.9143" fill="white" transform="matrix(0.999754 0.0221641 -0.0871456 0.996196 51.0059 61.0645)"/>
</clipPath>
</defs>
</svg>
