<svg width="41" height="54" fill="none" xmlns="http://www.w3.org/2000/svg"><path opacity=".4" d="M28.688 13.5a1.688 1.688 0 127 11.812 NaN NaNvNaNhNaNa2.525 2.525 0 0 2.519 NaN NaNvNaNa2.524 2.524 0 2.519 2.53 NaN NaNhNaNa2.524 2.524 0 2.53-2.518 NaN NaNvNaNhNaNz" fill="#0097E2"/><path d="M39.762 11.074L29.436.738a2.53 2.53 0 27.643 0 NaN NaNhNaNvNaNa1.687 1.687 0 1.688 1.687 NaN NaNhNaNvNaNa2.52 2.52 0 0-.738 NaN NaNz" fill="#0097E2"/><path d="M15.557 40.82c0 1.237-.002 2.474.003 3.711.001.159-.032.214-.205.213a1682.8 1682.8 0 0 0-7.452 0c-.158 0-.189-.053-.188-.196.003-2.485.004-4.97-.001-7.455 0-.163.052-.198.205-.197 2.479.005 4.957.006 7.436 0 .174 0 .206.054.205.212-.006 1.237-.003 2.474-.003 3.712zm-3.937 2.203c.68 0 1.362-.005 2.043.003.147.001.182-.046.181-.187a584.542 584.542 0 10-4.038 NaN NaNcNaN NaN NaN NaN NaN NaN NaN NaN NaN NaN NaN NaN NaN NaN NaN NaN NaN NaN NaN NaN NaN NaN NaN NaN NaN NaN NaN NaN NaN NaN NaN NaN NaN NaN NaN NaNzm0-15.123c-1.232 0-2.463-.003-3.694.004-.164 0-.213-.04-.212-.208.005-2.475.003-4.95.003-7.424 0-.21.001-.211.218-.211h7.405c.216 0 .217 0 .217.212v7.407c0 .22 0 .22-.227.22h-3.71zm2.221-1.727v-4.179c0-.216 0-.216-.211-.216H9.642c-.209 0-.21 0-.21.218 0 1.33.003 2.66-.003 3.99 0 .156.04.202.199.201 1.34-.006 2.68-.003 4.02-.004.058 0 .117-.006.193-.01zM28.466 27.9c-1.236 0-2.473-.003-3.71.003-.158 0-.201-.046-.201-.202.004-2.48.004-4.96 0-7.44 0-.156.041-.204.2-.204 2.485.005 4.97.005 7.454 0 .152 0 .192.046.191.195-.004 2.485-.004 4.97 0 7.456 0 .146-.035.196-.19.195-1.248-.006-2.496-.003-3.744-.004zm.027-6.123c-.681 0-1.362.003-2.043-.002-.132-.001-.18.035-.179.174.005 1.357.005 2.714 0 4.07 0 .13.038.167.167.167a681.55 681.55 0 14.07 0 NaN NaNcNaN NaN NaN NaN NaN NaNa565.026 565.026 0 10-4.055 NaN NaNcNaN NaN NaN NaN NaN NaN NaN NaN NaN NaN NaN NaNzm-6.81 19.716h3.045c.005.065.011.117.012.17 0 .458-.005.916.003 1.373.003.139-.042.175-.176.174-.888-.005-1.776-.002-2.664-.002h-.216v1.52H16.92v-1.695c.06-.004.123-.01.185-.01.889 0 1.777-.003 2.665.002.143 0 .199-.03.198-.188a485.644 485.644 0 10-4.04 NaN NaNcNaN NaN NaN NaN NaN NaN NaN NaN NaN NaN NaN NaNhNaNvNaNhNaNcNaN NaN NaN NaN NaN NaN NaN NaN NaN NaN NaN NaN NaN NaN NaN NaN NaN NaNvNaNzm-1.545-7.65v1.701h-3.222c-.004-.06-.01-.117-.01-.175-.001-.392-.005-.785.002-1.177.002-.124-.028-.173-.163-.172-.85.005-1.7.005-2.55 0-.139 0-.175.048-.173.18.007.387.002.774.002 1.16v.185H12.32c-.004-.055-.01-.103-.01-.15 0-.97.003-1.94-.004-2.91-.001-.153.052-.182.188-.179.387.008.774-.005 1.16.006.157.004.19-.05.19-.196-.006-.894 0-1.788-.007-2.682 0-.151.043-.194.193-.19.452.009.904.008 1.356 0 .14-.003.173.046.173.178-.005.899 0 1.798-.006 2.698 0 .148.038.194.191.192.894-.007 1.787 0 2.68-.006.144 0 .2.03.196.188-.012.397 0 .795-.006 1.193-.002.123.038.16.16.158.391-.006.784-.002 1.176-.002h.187zm10.727-1.352h-6.088c-.22 0-.22 0-.22-.224 0-.442.004-.884-.002-1.325-.002-.125.033-.17.165-.167.392.008.785.003 1.177.003h.196V29.372c0-.073.007-.127.102-.126.528.002 1.055.001 1.604.001v1.518h1.347v-1.508c.072-.004.13-.01.187-.01.959 0 1.917.003 2.876-.004.154 0 .194.047.191.194-.008.447-.003.894-.003 1.34v.184h-.21l-1.062.001c-.277.001-.259-.035-.26.268v1.262zm-9.183-7.656v1.518H19.97v-1.512h-3.05v-3.236h1.698c0 .348-.002.684 0 1.02.002.158-.049.38.032.454.093.084.306.044.467.044 1.29.002 2.582.001 3.872.001h.205c.006.062.014.109.014.156.002.463-.004.926.005 1.39.002.142-.05.171-.18.169-.375-.008-.752-.003-1.127-.003h-.223z" fill="#fff"/><path d="M21.495 29.247v-1.512h1.7v3.216h-6.279c-.004-.06-.01-.117-.01-.174-.001-.447.005-.894-.004-1.341-.003-.148.037-.193.19-.192 1.384.006 2.768.003 4.153.003h.25zm-10.532 4.776H9.75c-.317 0-.317 0-.317.323v1.014c0 .058-.006.117-.01.184H7.718v-6.086c0-.211 0-.211.216-.211.435 0 .871.007 1.307-.004.162-.004.197.05.196.204-.007.893 0 1.787-.007 2.68 0 .143.039.188.184.185.402-.009.806-.005 1.209.002.047 0 .135.052.136.08.008.534.005 1.067.005 1.63zm19.891 7.652h-3.039v3.052h-1.708v-4.752h4.747v1.7zm-3.059-3.059h-1.387c-.316 0-.316 0-.316-.321V35.76c0-.064-.006-.128-.01-.206h-1.505c-.008-.054-.019-.095-.02-.136v-1.423c-.001-.09.003-.155.126-.155 1.013.004 2.026.003 3.04.003.02 0 .041.007.072.012v4.761z" fill="#fff"/><path d="M29.15 43.033c.072-.004.12-.01.167-.01.964 0 1.927.003 2.89-.004.15 0 .197.04.193.192-.01.457-.006.915-.001 1.372.001.119-.033.16-.157.16-.985-.004-1.97-.003-2.956-.002-.077 0-.137 0-.137-.107.004-.528.002-1.056.002-1.6zm-5.941-22.952v.588c0 .316-.003.632.003.948.002.113-.022.165-.152.164-.98-.005-1.96-.005-2.94 0-.123 0-.158-.042-.157-.161.005-.468.003-.937.001-1.405 0-.09.005-.156.127-.156 1.002.004 2.004.003 3.006.003.031 0 .062.01.112.02zm-.012 15.467h-1.69c-.003-.059-.01-.111-.01-.164 0-.964.003-1.928-.003-2.893 0-.144.038-.186.183-.184.463.009.926.005 1.389.002.1-.001.146.023.145.136-.003 1.002-.002 2.004-.002 3.007 0 .026-.007.053-.012.096zm5.963-.01v-1.685c.06-.004.112-.01.165-.01.964 0 1.928.003 2.893-.004.143 0 .185.038.183.183-.01.463-.005.927-.003 1.39 0 .086-.008.143-.121.143-1.019-.004-2.038-.002-3.057-.003-.015 0-.03-.007-.06-.014zm-6.119 1.374h1.7v.17c0 .959-.004 1.917.003 2.876 0 .152-.044.193-.192.19-.447-.01-.893-.003-1.34-.003h-.17l-.001-3.233zm-11.409-5.95c-.24 0-.48-.003-.719.002-.096.001-.136-.028-.135-.13.004-.485.004-.97 0-1.455 0-.096.03-.135.131-.134.485.004.97.004 1.454 0 .096 0 .135.028.134.13-.004.485-.005.97 0 1.454.002.115-.048.136-.146.134-.24-.004-.48-.001-.72 0zm19.888 7.655c-.227 0-.456-.005-.684.001-.108.003-.156-.025-.155-.144.005-.479.005-.958 0-1.436 0-.108.037-.14.143-.14.473.005.946.005 1.42 0 .106 0 .156.025.155.145-.005.478-.005.957 0 1.436 0 .108-.04.142-.144.14-.245-.006-.49-.002-.734-.002zM18.617 27.032c0 .245-.003.49.002.736.002.098-.03.135-.131.134a96.63 96.63 0 0-1.455 0 NaNc-1.558 NaN-1.585 NaN-1.584 NaN.003 NaN.004 NaN 0 NaN-.001 NaN.032 NaN.14 NaN.48 NaN.959 NaN 1.438 NaN.11 NaN.14 NaN.137 NaN-.005 NaN-.001 NaN-.002 NaNzm-.013 14.637h-1.685v-1.691h1.685v1.69zm-6.117-1.692v1.685h-1.694v-1.685h1.694zM10.78 23.125c.56 0 1.093-.002 1.625.005.03 0 .085.065.086.1.005.5.006 1-.001 1.501 0 .036-.066.1-.103.1-.5.007-1 .007-1.5.002-.036 0-.102-.055-.102-.085-.006-.532-.005-1.064-.005-1.623zm18.556.001v1.002c0 .19-.003.38.001.571.003.092-.02.14-.125.139-.49-.005-.98-.004-1.469-.001-.09 0-.125-.03-.124-.123.003-.49-.001-.98.005-1.469 0-.04.057-.113.088-.114.532-.007 1.064-.005 1.624-.005z" fill="#fff"/></svg>