<svg width="45" height="46" viewBox="0 0 45 46" fill="none" xmlns="http://www.w3.org/2000/svg"><path d="M.391 18.31C2.354 7.886 11.506 0 22.501 0a22.422 22.422 0 0 1 15.541 6.232l3.238-3.238c1.372-1.372 3.72-.4 3.72 1.542v12.157a2.177 2.177 0 0 1-2.177 2.177L31.5 18.364c-1.94 0-2.911-2.345-1.542-3.72L34 10.5c-2.82-2.65-7.643-4.256-11.513-4.242-7.027.006-13.427 5.46-15.102 12.144a1.089 1.089 0 0 1-1.057.83l-4.866.364a1.089 1.089 0 0 1-1.07-1.286z" fill="#0097E2"/><path d="M44.982 27.287c-1.962 10.424-11.115 18.31-22.11 18.31a22.421 22.421 0 0 1-15.541-6.232l-3.238 3.237c-1.372 1.372-3.72.4-3.72-1.542V28.903a2.178 2.178 0 0 1 2.177-2.177l11.323.507c1.94 0 2.911 2.345 1.542 3.72l-4.042 4.143c2.82 2.65 7.643 4.257 11.513 4.243 7.028-.007 13.427-5.461 15.102-12.145a1.088 1.088 0 0 1 1.057-.83L43.91 26a1.088 1.088 0 0 1 1.07 1.287z" fill="#0097E2" opacity=".4"/></svg>