<svg width="152" height="34" viewBox="0 0 106 24" fill="none" xmlns="http://www.w3.org/2000/svg">
<path d="M35.789 18.6021C35.7041 18.6862 35.5592 18.7913 35.3613 18.921C35.1599 19.0472 34.9018 19.1769 34.5802 19.3031C34.2586 19.4293 33.8663 19.5415 33.4033 19.6326C32.9403 19.7237 32.4066 19.7693 31.8093 19.7693C30.6535 19.7693 29.6568 19.5835 28.8121 19.219C27.9709 18.8509 27.2746 18.3392 26.7268 17.6802C26.179 17.0212 25.7761 16.243 25.5181 15.3457C25.26 14.4483 25.1328 13.4599 25.1328 12.3837C25.1328 11.3076 25.2707 10.3157 25.5499 9.40078C25.8291 8.48942 26.2461 7.70074 26.801 7.03474C27.3559 6.36874 28.0522 5.84996 28.8863 5.4749C29.7204 5.09984 30.703 4.91406 31.8269 4.91406C32.3818 4.91406 32.8872 4.96314 33.3361 5.06128C33.785 5.15943 34.1773 5.27861 34.5131 5.41181C34.8488 5.54501 35.1245 5.68872 35.3472 5.83594C35.5663 5.98316 35.736 6.10935 35.8491 6.2075C35.9763 6.31967 36.0859 6.45637 36.1813 6.6106C36.2732 6.76483 36.3191 6.93659 36.3191 7.11886C36.3191 7.40279 36.2131 7.68321 35.9975 7.96713C35.7819 8.25106 35.5486 8.51045 35.2906 8.75231C35.121 8.58406 34.9266 8.4088 34.7145 8.23353C34.4989 8.05827 34.2621 7.90053 33.997 7.76733C33.732 7.63414 33.4351 7.51846 33.0993 7.42733C32.7635 7.33619 32.3889 7.29062 31.9754 7.29062C31.2473 7.29062 30.6394 7.43434 30.1446 7.72527C29.6533 8.01621 29.2574 8.39477 28.957 8.86097C28.6566 9.32717 28.4445 9.86347 28.3138 10.4629C28.1865 11.0658 28.1229 11.6757 28.1229 12.2996C28.1229 12.9656 28.1865 13.6001 28.3138 14.21C28.441 14.8199 28.6637 15.3562 28.9782 15.8224C29.2928 16.2886 29.7028 16.6637 30.2082 16.9476C30.7136 17.2315 31.3463 17.3717 32.1026 17.3717C32.502 17.3717 32.8696 17.3226 33.2053 17.2245C33.5411 17.1263 33.838 17.0072 34.0925 16.8635C34.3505 16.7232 34.5731 16.5725 34.7675 16.4183C34.9619 16.2641 35.121 16.1274 35.2482 16.0152C35.333 16.1133 35.432 16.236 35.5486 16.3762C35.6653 16.5199 35.7713 16.6672 35.8703 16.8214C35.9692 16.9756 36.0541 17.1334 36.1283 17.2876C36.199 17.4453 36.2343 17.5855 36.2343 17.7117C36.2343 17.8975 36.199 18.0517 36.1283 18.1779C36.0576 18.3041 35.9445 18.4478 35.789 18.6021ZM46.8162 16.9756C46.8162 18.1008 46.9824 18.9175 47.3111 19.4293C47.053 19.5274 46.8127 19.6011 46.59 19.6431C46.3674 19.6852 46.1341 19.7062 45.8902 19.7062C45.3742 19.7062 44.9819 19.6081 44.7168 19.4083C44.4517 19.2085 44.2821 18.9245 44.2114 18.553C43.8968 18.8825 43.4798 19.1594 42.9638 19.3872C42.4477 19.6151 41.8151 19.7272 41.0693 19.7272C40.6806 19.7272 40.2953 19.6747 39.9065 19.566C39.5177 19.4608 39.1678 19.2856 38.8497 19.0437C38.5352 18.8019 38.2772 18.4794 38.0757 18.0763C37.8743 17.6732 37.7753 17.1789 37.7753 16.5971C37.7753 15.875 37.952 15.2826 38.3019 14.8304C38.6554 14.3747 39.0936 14.0172 39.6273 13.7543C40.1575 13.4914 40.7336 13.3126 41.3486 13.211C41.9671 13.1128 42.5326 13.0497 43.0486 13.0182C43.2218 13.0042 43.3879 12.9972 43.554 12.9972H44.017V12.6081C44.017 12.0613 43.8686 11.6722 43.5752 11.4408C43.2819 11.2095 42.8047 11.0938 42.1438 11.0938C41.5253 11.0938 40.9774 11.192 40.4968 11.3918C40.0161 11.5916 39.546 11.8194 39.0865 12.0753C38.8851 11.8334 38.7225 11.567 38.6023 11.2761C38.4822 10.9852 38.4185 10.7678 38.4185 10.6241C38.4185 10.4243 38.5281 10.2315 38.7508 10.0493C38.9734 9.86347 39.2774 9.69873 39.6662 9.548C40.055 9.39728 40.4968 9.2781 41.0022 9.18346C41.5041 9.09232 42.0342 9.04325 42.5962 9.04325C43.3702 9.04325 44.0276 9.12036 44.5648 9.2781C45.1021 9.43583 45.5403 9.6777 45.8761 10.0037C46.2119 10.3332 46.4522 10.7398 46.5971 11.2305C46.742 11.7213 46.8127 12.2961 46.8127 12.9481V16.9756H46.8162ZM44.0594 14.4974H43.759C43.6565 14.4974 43.5575 14.5044 43.4586 14.5184C43.0981 14.5465 42.7446 14.5885 42.3912 14.6481C42.0378 14.7042 41.7267 14.8059 41.4546 14.9461C41.1824 15.0898 40.9598 15.2721 40.7866 15.4999C40.6134 15.7278 40.5286 16.0187 40.5286 16.3762C40.5286 16.7758 40.6452 17.1123 40.8714 17.3892C41.1011 17.6662 41.4899 17.8064 42.0342 17.8064C42.3064 17.8064 42.5644 17.7713 42.8083 17.7012C43.0521 17.6311 43.2677 17.5365 43.455 17.4243C43.6424 17.3086 43.7873 17.1859 43.8968 17.0492C44.0029 16.916 44.0594 16.7898 44.0594 16.6742V14.4974ZM52.1744 10.2911C52.4041 10.0212 52.7611 9.7478 53.2488 9.47089C53.7366 9.19397 54.3515 9.05376 55.0938 9.05376C55.6239 9.05376 56.1258 9.14139 56.6065 9.32016C57.0836 9.49893 57.5113 9.78636 57.8824 10.186C58.2535 10.5856 58.5504 11.1113 58.773 11.7668C58.9957 12.4223 59.1053 13.225 59.1053 14.1784C59.1053 15.2896 58.978 16.2045 58.72 16.923C58.462 17.6416 58.1298 18.213 57.7233 18.6301C57.3169 19.0507 56.861 19.3452 56.3591 19.5169C55.8572 19.6887 55.3588 19.7728 54.857 19.7728C54.4434 19.7728 54.0794 19.7272 53.7719 19.6326C53.4644 19.5415 53.2029 19.4363 52.9873 19.3241C52.7717 19.212 52.6091 19.0963 52.4925 18.9841C52.3794 18.872 52.3051 18.7913 52.2769 18.7493V23.9966H49.3504V9.35171C49.4211 9.33769 49.5094 9.32367 49.6119 9.30964C49.7003 9.29562 49.7993 9.28511 49.9159 9.2781C50.0325 9.27109 50.1704 9.26758 50.3294 9.26758C50.8066 9.26758 51.213 9.3447 51.5452 9.50243C51.8775 9.66017 52.0895 9.92306 52.1744 10.2911ZM56.048 14.2415C56.048 13.8139 56.0127 13.4178 55.942 13.0462C55.8713 12.6747 55.7512 12.3557 55.5886 12.0858C55.426 11.8159 55.2033 11.6056 54.9241 11.4549C54.6449 11.3041 54.3056 11.2305 53.9062 11.2305C53.3054 11.2305 52.8883 11.3462 52.655 11.5705C52.4182 11.7984 52.3016 12.0472 52.3016 12.3171V16.8424C52.4147 16.9581 52.6197 17.0913 52.913 17.249C53.2064 17.4068 53.5457 17.4839 53.9309 17.4839C54.659 17.4839 55.1927 17.2 55.5356 16.6286C55.8784 16.0643 56.048 15.2651 56.048 14.2415ZM61.3673 17.915C61.2648 17.6311 61.2012 17.3332 61.1729 17.0177C61.1446 16.7057 61.1305 16.3902 61.1305 16.0783V6.17245C61.2295 6.15843 61.339 6.14441 61.4521 6.13038C61.5511 6.11636 61.6606 6.10585 61.7737 6.09884C61.8868 6.09183 62.0035 6.08832 62.1166 6.08832C62.3463 6.08832 62.576 6.10935 62.8058 6.15142C63.0355 6.19348 63.244 6.28111 63.4314 6.4073C63.6187 6.53699 63.7671 6.70875 63.8838 6.92958C64.0004 7.15041 64.057 7.43784 64.057 7.79538V9.30964H67.0718V11.4654H64.057V16.0187C64.057 17.0107 64.4669 17.5084 65.2834 17.5084C65.4848 17.5084 65.6757 17.4769 65.8524 17.4138C66.0327 17.3507 66.1917 17.2806 66.3366 17.2C66.4815 17.1228 66.6052 17.0387 66.7148 16.9546C66.8208 16.8705 66.8986 16.8039 66.941 16.7618C67.1566 17.0738 67.3227 17.3472 67.4358 17.575C67.5489 17.8029 67.609 18.0202 67.609 18.22C67.609 18.4058 67.5348 18.5915 67.3828 18.7703C67.2308 18.9491 67.0188 19.1138 66.7466 19.2646C66.4745 19.4153 66.1422 19.538 65.757 19.6291C65.3682 19.7237 64.9476 19.7693 64.4881 19.7693C63.5975 19.7693 62.9047 19.5976 62.4099 19.2575C61.9151 18.9175 61.5652 18.4689 61.3673 17.915ZM74.4869 17.6346C74.8474 17.6346 75.162 17.5961 75.4377 17.5154C75.7098 17.4383 75.9572 17.3402 76.1728 17.228C76.3884 17.1158 76.5757 16.9896 76.7348 16.8529C76.8938 16.7162 77.0387 16.5936 77.166 16.4779C77.3392 16.6917 77.5194 16.9651 77.7067 17.2981C77.8941 17.6346 77.9859 17.908 77.9859 18.1218C77.9859 18.4338 77.8057 18.7212 77.4487 18.9771C77.1483 19.205 76.7206 19.4013 76.1693 19.566C75.6179 19.7308 74.9676 19.8114 74.2218 19.8114C73.5468 19.8114 72.8823 19.7272 72.232 19.5555C71.5781 19.3837 70.9985 19.0858 70.4895 18.6581C69.9806 18.2305 69.5671 17.6591 69.2525 16.9406C68.9379 16.222 68.7789 15.3141 68.7789 14.217C68.7789 13.3196 68.9203 12.5485 69.1995 11.9C69.4787 11.2516 69.8533 10.7152 70.3199 10.2876C70.7864 9.85997 71.313 9.548 71.9033 9.3482C72.49 9.1484 73.0944 9.05026 73.7129 9.05026C74.5152 9.05026 75.1973 9.17645 75.7593 9.42532C76.3177 9.67419 76.7737 10.0107 77.1271 10.4278C77.477 10.8484 77.7315 11.3287 77.8905 11.8685C78.0496 12.4083 78.1273 12.9796 78.1273 13.5755V13.8735C78.1273 13.9892 78.1238 14.1083 78.1167 14.238C78.1097 14.3677 78.1026 14.4904 78.0955 14.6131C78.0884 14.7358 78.0778 14.8304 78.0637 14.9005H71.7124C71.769 15.6822 72.0164 16.3342 72.4476 16.8529C72.8646 17.3787 73.5503 17.6346 74.4869 17.6346ZM75.4659 13.3021C75.4659 12.6186 75.3316 12.0648 75.0665 11.6371C74.7979 11.2095 74.3208 10.9957 73.6281 10.9957C73.0378 10.9957 72.5642 11.199 72.2108 11.6056C71.8573 12.0122 71.6806 12.5765 71.6806 13.3021H75.4659ZM83.2098 10.3472C83.2946 10.221 83.4112 10.0773 83.5526 9.92306C83.6975 9.76883 83.8707 9.62512 84.0792 9.49893C84.2878 9.37274 84.5175 9.26408 84.7684 9.17995C85.0194 9.09582 85.288 9.05376 85.5743 9.05376C85.7474 9.05376 85.9277 9.06778 86.1221 9.09582C86.3165 9.12387 86.4967 9.17645 86.6593 9.25356C86.8254 9.33068 86.9562 9.43583 87.0587 9.57254C87.1577 9.70574 87.2107 9.87399 87.2107 10.0703C87.2107 10.3823 87.1329 10.7363 86.9739 11.1394C86.8148 11.5425 86.6593 11.886 86.5003 12.1699C86.2564 11.9701 86.0125 11.8194 85.7687 11.7107C85.5248 11.6056 85.2385 11.5495 84.9063 11.5495C84.4609 11.5495 84.0898 11.6792 83.7859 11.9351C83.4854 12.191 83.3335 12.4994 83.3335 12.857V19.7693H80.407V9.35171C80.4777 9.33769 80.566 9.32367 80.665 9.30964C80.7498 9.29562 80.8523 9.28511 80.9654 9.2781C81.0785 9.27109 81.2164 9.26758 81.3754 9.26758C81.8349 9.26758 82.2343 9.35521 82.57 9.53048C82.9129 9.70924 83.1249 9.97915 83.2098 10.3472ZM91.5332 10.3472C91.6181 10.221 91.7347 10.0773 91.8761 9.92306C92.021 9.76883 92.1942 9.62512 92.4027 9.49893C92.6112 9.37274 92.841 9.26408 93.0919 9.17995C93.3428 9.09582 93.6115 9.05376 93.8977 9.05376C94.0709 9.05376 94.2512 9.06778 94.4456 9.09582C94.64 9.12387 94.8202 9.17645 94.9828 9.25356C95.1489 9.33068 95.2797 9.43583 95.3822 9.57254C95.4811 9.70574 95.5341 9.87399 95.5341 10.0703C95.5341 10.3823 95.4564 10.7363 95.2973 11.1394C95.1383 11.5425 94.9828 11.886 94.8237 12.1699C94.5799 11.9701 94.336 11.8194 94.0921 11.7107C93.8483 11.6056 93.562 11.5495 93.2297 11.5495C92.7844 11.5495 92.4133 11.6792 92.1093 11.9351C91.8089 12.191 91.6569 12.4994 91.6569 12.857V19.7693H88.7305V9.35171C88.8012 9.33769 88.8895 9.32367 88.9885 9.30964C89.0733 9.29562 89.1758 9.28511 89.2889 9.2781C89.402 9.27109 89.5398 9.26758 89.6989 9.26758C90.1584 9.26758 90.5577 9.35521 90.8935 9.53048C91.2363 9.70924 91.4484 9.97915 91.5332 10.3472ZM105.505 16.9756C105.505 18.1008 105.671 18.9175 105.999 19.4293C105.741 19.5274 105.501 19.6011 105.278 19.6431C105.056 19.6852 104.823 19.7062 104.579 19.7062C104.063 19.7062 103.67 19.6081 103.405 19.4083C103.14 19.2085 102.97 18.9245 102.9 18.553C102.585 18.8825 102.168 19.1594 101.652 19.3872C101.136 19.6151 100.503 19.7272 99.7577 19.7272C99.3689 19.7272 98.9837 19.6747 98.5949 19.566C98.2061 19.4608 97.8562 19.2856 97.5417 19.0437C97.2271 18.8019 96.9691 18.4794 96.7677 18.0763C96.5662 17.6732 96.4672 17.1789 96.4672 16.5971C96.4672 15.875 96.6439 15.2826 96.9938 14.8304C97.3438 14.3747 97.7855 14.0172 98.3192 13.7543C98.8494 13.4914 99.4255 13.3126 100.04 13.211C100.659 13.1128 101.224 13.0497 101.741 13.0182C101.914 13.0042 102.08 12.9972 102.246 12.9972H102.709V12.6081C102.709 12.0613 102.561 11.6722 102.267 11.4408C101.974 11.2095 101.497 11.0938 100.836 11.0938C100.217 11.0938 99.6694 11.192 99.1887 11.3918C98.708 11.5916 98.2379 11.8194 97.7785 12.0753C97.577 11.8334 97.4144 11.567 97.2943 11.2761C97.1741 10.9852 97.1105 10.7678 97.1105 10.6241C97.1105 10.4243 97.2201 10.2315 97.4427 10.0493C97.6654 9.86347 97.9693 9.69873 98.3581 9.548C98.7469 9.39728 99.1887 9.2781 99.6941 9.18346C100.196 9.09232 100.726 9.04325 101.288 9.04325C102.062 9.04325 102.72 9.12036 103.257 9.2781C103.794 9.43583 104.232 9.6777 104.568 10.0037C104.904 10.3332 105.144 10.7398 105.289 11.2305C105.434 11.7213 105.505 12.2961 105.505 12.9481V16.9756ZM102.748 14.4974H102.447C102.345 14.4974 102.246 14.5044 102.147 14.5184C101.786 14.5465 101.433 14.5885 101.08 14.6481C100.726 14.7042 100.415 14.8059 100.143 14.9461C99.8708 15.0898 99.6482 15.2721 99.475 15.4999C99.3018 15.7278 99.217 16.0187 99.217 16.3762C99.217 16.7758 99.3336 17.1123 99.5598 17.3892C99.786 17.6662 100.178 17.8064 100.723 17.8064C100.995 17.8064 101.253 17.7713 101.497 17.7012C101.741 17.6311 101.956 17.5365 102.143 17.4243C102.331 17.3086 102.476 17.1859 102.585 17.0492C102.691 16.916 102.748 16.7898 102.748 16.6742V14.4974Z" fill="#000000"/>
<path d="M0 9.309L9.71601 9.3125H15.622V3.50781L0 9.309Z" fill="#FF9D28"/>
<path d="M15.6211 3.50673V23.9984L23.0009 0.765625L15.6211 3.50673Z" fill="#68C5ED"/>
<path d="M15.6208 9.31152H9.71484L15.6208 23.9985V9.31152Z" fill="#044D80"/>
<path d="M0 9.30786L11.2287 13.0795L9.71248 9.31137L0 9.30786Z" fill="#E54747"/>
</svg>



