<svg width="25" height="25" viewBox="0 0 25 25" fill="none" xmlns="http://www.w3.org/2000/svg">
<g opacity="0.7">
<path d="M0.5 24.3V13.6C0.5 5.73333 3.46667 1.5 9.4 0.899997L10.4 0.799999V6.1L9.7 6.19999C7.3 6.46666 6.1 8.7 6.1 12.9V14.5H10.4V24.3H0.5ZM24.2 6.1L23.5 6.19999C21.1 6.46666 19.9 8.7 19.9 12.9V14.5H24.2V24.3H14.3V13.6C14.3 5.73333 17.2667 1.5 23.2 0.899997L24.2 0.799999V6.1Z" fill="#0672DD"/>
<path d="M0.5 24.3V13.6C0.5 5.73333 3.46667 1.5 9.4 0.899997L10.4 0.799999V6.1L9.7 6.19999C7.3 6.46666 6.1 8.7 6.1 12.9V14.5H10.4V24.3H0.5ZM24.2 6.1L23.5 6.19999C21.1 6.46666 19.9 8.7 19.9 12.9V14.5H24.2V24.3H14.3V13.6C14.3 5.73333 17.2667 1.5 23.2 0.899997L24.2 0.799999V6.1Z" fill="#848A9F"/>
</g>
</svg>
