<svg width="4906" height="606" viewBox="0 0 4906 606" fill="none" xmlns="http://www.w3.org/2000/svg">
<path d="M2366.93 334.693H103.895L104.157 333.123H2367.19C2393.39 332.985 2416.27 316.424 2433.35 285.286C2433.35 285.286 2539.74 89.5565 2561.79 48.8014C2583.83 8.04631 2602.52 0.137779 2629.36 0L2753.06 0.137779L4905.04 0L4801.89 287.84L2649.89 287.978L2539.34 287.84C2538.89 287.842 2538.43 287.844 2537.97 287.846L2537.1 287.848L2536.31 287.85L2536.23 287.85C2510.49 287.906 2479.25 287.975 2452.8 334.685C2425.27 383.294 2331.28 557.199 2331.28 557.199C2313.85 588.971 2290.49 605.862 2263.77 606H0.738281L1.00028 604.429H2264.03C2290.23 604.292 2313.11 587.73 2330.2 556.592C2330.2 556.592 2436.59 360.863 2458.63 320.108C2461.43 314.935 2464.17 310.292 2466.88 306.126C2464.17 309.894 2461.49 314.077 2458.86 318.721C2431.33 367.33 2337.35 541.235 2337.35 541.235C2319.91 573.007 2296.56 589.898 2269.84 590.036H6.80469L7.06669 588.466H2270.1C2296.3 588.328 2319.18 571.767 2336.26 540.629C2336.26 540.629 2442.65 344.899 2464.7 304.144C2467.47 299.011 2470.19 294.399 2472.89 290.258C2470.2 294.002 2467.54 298.155 2464.93 302.762C2437.4 351.37 2343.42 525.275 2343.42 525.275C2325.98 557.047 2302.63 573.939 2275.91 574.077H12.8745L13.1365 572.506H2276.17C2302.37 572.368 2325.25 555.807 2342.33 524.669C2342.33 524.669 2448.72 328.94 2470.77 288.185C2473.56 283.023 2476.29 278.388 2479 274.23C2476.29 277.991 2473.62 282.165 2471 286.799C2443.47 335.407 2349.48 509.312 2349.48 509.312C2332.05 541.084 2308.7 557.976 2281.97 558.113H18.9424L19.2044 556.543H2282.24C2308.44 556.405 2331.32 539.844 2348.4 508.706C2348.4 508.706 2454.79 312.977 2476.83 272.221C2479.62 267.068 2482.35 262.439 2485.06 258.285C2482.35 262.042 2479.69 266.21 2477.07 270.835C2449.54 319.444 2355.55 493.349 2355.55 493.349C2338.12 525.12 2314.77 542.012 2288.04 542.15H25.0117L25.2737 540.579H2288.31C2314.51 540.442 2337.39 523.88 2354.47 492.742C2354.47 492.742 2460.86 297.013 2482.9 256.258C2485.7 251.093 2488.44 246.456 2491.14 242.296C2488.43 246.059 2485.76 250.236 2483.14 254.872C2455.61 303.481 2361.62 477.386 2361.62 477.386C2344.19 509.158 2320.83 526.05 2294.11 526.187H31.0786L31.3406 524.617H2294.37C2320.57 524.479 2343.45 507.918 2360.54 476.78C2360.54 476.78 2466.93 281.05 2488.97 240.295C2491.77 235.121 2494.51 230.475 2497.23 226.308C2494.51 230.078 2491.83 234.262 2489.2 238.909C2461.67 287.517 2367.69 461.422 2367.69 461.422C2350.25 493.194 2326.9 510.086 2300.18 510.224H37.1445L37.4065 508.653H2300.44C2326.64 508.515 2349.52 491.954 2366.6 460.816C2366.6 460.816 2472.99 265.087 2495.04 224.332C2497.81 219.198 2500.54 214.585 2503.23 210.444C2500.54 214.188 2497.88 218.342 2495.27 222.949C2467.74 271.558 2373.76 445.463 2373.76 445.463C2356.32 477.235 2332.97 494.126 2306.25 494.264H43.2144L43.4764 492.693H2306.51C2332.71 492.556 2355.59 475.995 2372.67 444.856C2372.67 444.856 2479.06 249.127 2501.1 208.372C2503.9 203.201 2506.65 198.558 2509.36 194.393C2506.64 198.16 2503.97 202.342 2501.34 206.985C2473.81 255.593 2379.82 429.498 2379.82 429.498C2362.39 461.27 2339.04 478.162 2312.31 478.3H49.2813L49.5433 476.729H2312.58C2338.78 476.591 2361.66 460.03 2378.74 428.892C2378.74 428.892 2485.13 233.163 2507.17 192.408C2509.83 187.502 2512.43 183.072 2515.01 179.074C2512.44 182.687 2509.9 186.676 2507.41 191.079C2479.88 239.687 2385.89 413.592 2385.89 413.592C2368.46 445.364 2345.11 462.256 2318.38 462.393H55.3506L55.6126 460.823H2318.64C2344.84 460.685 2367.73 444.124 2384.81 412.986C2384.81 412.986 2491.2 217.257 2513.24 176.501C2516.04 171.335 2518.78 166.697 2521.49 162.535C2518.78 166.299 2516.1 170.477 2513.48 175.114C2485.95 223.723 2391.96 397.628 2391.96 397.628C2374.53 429.4 2351.17 446.291 2324.45 446.429H61.4185L61.6805 444.858H2324.71C2350.91 444.721 2373.79 428.16 2390.88 397.021C2390.88 397.021 2497.27 201.292 2519.31 160.537C2522.09 155.402 2524.81 150.789 2527.5 146.647C2524.81 150.392 2522.15 154.546 2519.55 159.154C2492.02 207.763 2398.03 381.668 2398.03 381.668C2380.6 413.44 2357.24 430.332 2330.52 430.469H67.4883L67.7503 428.899H2330.78C2356.98 428.761 2379.86 412.2 2396.95 381.062C2396.95 381.062 2503.34 185.332 2525.38 144.577C2528.18 139.407 2530.92 134.766 2533.63 130.602C2530.92 134.368 2528.24 138.549 2525.61 143.191C2498.08 191.8 2404.1 365.705 2404.1 365.705C2386.66 397.477 2363.31 414.368 2336.59 414.506H73.5547L73.8167 412.935H2336.85C2363.05 412.798 2385.93 396.237 2403.01 365.098C2403.01 365.098 2509.4 169.369 2531.45 128.614C2534.24 123.446 2536.98 118.806 2539.69 114.643C2536.98 118.408 2534.31 122.588 2531.68 127.228C2504.15 175.837 2410.16 349.742 2410.16 349.742C2392.73 381.514 2369.38 398.406 2342.65 398.543H79.6211L79.8831 396.973H2342.92C2369.12 396.835 2392 380.274 2409.08 349.136C2409.08 349.136 2515.47 153.406 2537.51 112.651C2540.3 107.5 2543.03 102.874 2545.73 98.7217C2543.03 102.476 2540.37 106.642 2537.75 111.265C2510.22 159.873 2416.23 333.778 2416.23 333.778C2398.8 365.55 2375.45 382.442 2348.72 382.58H85.6909L85.9529 381.009H2348.99C2375.19 380.871 2398.07 364.31 2415.15 333.172C2415.15 333.172 2521.54 137.443 2543.58 96.6877C2546.36 91.542 2549.09 86.9198 2551.79 82.7709C2549.09 86.5229 2546.43 90.686 2543.82 95.3051C2516.29 143.914 2422.3 317.819 2422.3 317.819C2404.87 349.591 2381.51 366.482 2354.79 366.62H91.7588L92.0208 365.049H2355.05C2381.25 364.912 2404.13 348.351 2421.22 317.212C2421.22 317.212 2527.61 121.483 2549.65 80.7281C2552.44 75.5722 2555.17 70.9419 2557.88 66.7867C2555.17 70.5439 2552.51 74.7137 2549.89 79.3411C2522.36 127.95 2428.37 301.855 2428.37 301.855C2410.94 333.627 2387.58 350.518 2360.86 350.656H97.8281L98.0901 349.085H2361.12C2387.32 348.948 2410.2 332.387 2427.29 301.248C2427.29 301.248 2533.68 105.519 2555.72 64.7641C2558.51 59.5996 2561.25 54.9626 2563.96 50.802C2561.25 54.565 2558.58 58.742 2555.95 63.3785C2528.42 111.987 2434.44 285.892 2434.44 285.892C2417 317.664 2393.65 334.556 2366.93 334.693Z" fill="#DCFCFF"/>
</svg>
