<svg width="45" height="45" viewBox="0 0 45 45" fill="none" xmlns="http://www.w3.org/2000/svg">
<path d="M42.6267 2.37969C41.0116 0.765307 38.723 0 36.0184 0C32.1256 0 27.3651 1.61988 22.5002 4.53456C20.4603 5.76673 18.5119 7.14429 16.6701 8.65654C14.1213 10.7351 11.5091 13.1173 8.61425 16.6655C9.62964 18.7152 10.83 20.668 12.2004 22.4995C15.122 18.596 18.5909 15.1338 22.5002 12.2198C24.3323 10.859 26.2835 9.66643 28.3302 8.65674C35.3626 5.20805 37.8951 6.74082 38.0797 6.92543C39.0382 7.88398 38.8505 11.6409 36.3861 16.6655C37.8915 18.509 39.2619 20.4588 40.4865 22.4998C45.4295 14.2552 46.5661 6.31805 42.6267 2.37969ZM22.5002 32.7795C20.668 34.1403 18.7168 35.3329 16.6701 36.3428C9.63773 39.7915 7.10526 38.2587 6.92065 38.0741C5.96215 37.1155 6.1498 33.3588 8.61424 28.334C7.10883 26.4905 5.73848 24.5407 4.51389 22.4998C-0.429119 30.7443 -1.5658 38.6814 2.37364 42.6196C3.98871 44.2342 6.27737 44.9995 8.98199 44.9995C12.8747 44.9995 17.6352 43.3796 22.5002 40.4649C24.54 39.2328 26.4884 37.8552 28.3302 36.343C30.8805 34.2632 33.4954 31.8776 36.3861 28.334C35.3709 26.2841 34.1705 24.3313 32.7999 22.4998C29.8783 26.4033 26.4094 29.8655 22.5002 32.7795Z" fill="#0097E2" fill-opacity="0.4"/>
<path d="M12.2002 22.4996C10.8297 20.6681 9.62936 18.7153 8.61402 16.6655C6.14919 11.6409 5.96164 7.88397 6.92019 6.92562C7.10499 6.74102 9.63731 5.20785 16.6696 8.65654C18.5115 7.14439 20.46 5.76683 22.4998 4.53456C17.6344 1.62027 12.8735 0 8.98167 0C6.27632 0 3.98884 0.764914 2.37307 2.37969C-1.56626 6.31805 -0.429585 14.2552 4.51342 22.4997C5.73801 24.5407 7.10845 26.4905 8.61402 28.334C11.5065 31.88 14.1243 34.2675 16.6696 36.3428C18.7163 35.3329 20.6676 34.1403 22.4998 32.7795C18.5905 29.8655 15.1216 26.4033 12.2002 22.4996ZM40.4861 22.4997C39.2615 20.4588 37.8911 18.509 36.3855 16.6655C33.4883 13.1142 30.8712 10.7288 28.3299 8.65674C26.2832 9.66651 24.3319 10.859 22.4998 12.2198C26.409 15.1338 29.8778 18.5961 32.7993 22.4997C34.1699 24.3312 35.3703 26.2841 36.3855 28.334C38.8503 33.3584 39.0379 37.1153 38.0793 38.0739C37.8945 38.2585 35.3622 39.7916 28.3299 36.343C26.488 37.8551 24.5396 39.2327 22.4998 40.4649C27.3651 43.3792 32.126 44.9995 36.0178 44.9995C38.7232 44.9995 41.0107 44.2346 42.6264 42.6196C46.5658 38.6814 45.4291 30.7443 40.4861 22.4997Z" fill="#0097E2"/>
</svg>
