<svg width="45" height="46" viewBox="0 0 45 46" fill="none" xmlns="http://www.w3.org/2000/svg">
<path d="M0.391162 18.3099C2.35352 7.88572 11.5057 2.01223e-05 22.5005 2.01223e-05C28.2915 -0.00773332 33.8609 2.22543 38.0424 6.23183L41.2803 2.9939C42.6521 1.62216 45 2.59381 45 4.5362V16.6932C45 17.2706 44.7706 17.8245 44.3622 18.2328C43.9539 18.6411 43.4001 18.8705 42.8226 18.8705L31.5 18.3638C29.5603 18.3638 28.5887 16.0186 29.9577 14.6442L34 10.5C31.1798 7.84967 26.357 6.24372 22.4869 6.25791C15.4595 6.26426 9.05984 11.7188 7.38508 18.4024C7.32721 18.6391 7.19162 18.8495 7 19C6.80838 19.1505 6.57181 19.2324 6.32815 19.2325L1.4617 19.5963C1.30198 19.5963 1.14422 19.5612 0.999604 19.4934C0.854989 19.4256 0.727062 19.3268 0.624897 19.204C0.522732 19.0813 0.448833 18.9375 0.408439 18.783C0.368045 18.6285 0.362147 18.4669 0.391162 18.3099Z" fill="#0097E2"/>
<g opacity="0.4">
<path d="M44.9819 27.2866C43.0195 37.7107 33.8673 45.5964 22.8725 45.5964C17.0815 45.6042 11.5121 43.371 7.33066 39.3646L4.09273 42.6025C2.72099 43.9743 0.373062 43.0026 0.373062 41.0602L0.373061 28.9033C0.373061 28.3258 0.602461 27.772 1.0108 27.3636C1.41913 26.9553 1.97296 26.7259 2.55043 26.7259L13.873 27.2326C15.8127 27.2326 16.7844 29.5778 15.4153 30.9523L11.373 35.0964C14.1932 37.7468 19.0161 39.3527 22.8861 39.3385C29.9136 39.3322 36.3132 33.8777 37.988 27.1941C38.0458 26.9574 38.1814 26.7469 38.373 26.5964C38.5647 26.4459 38.8012 26.3641 39.0449 26.3639L43.9113 26.0001C44.0711 26.0001 44.2288 26.0353 44.3734 26.1031C44.5181 26.1709 44.646 26.2696 44.7481 26.3924C44.8503 26.5152 44.9242 26.6589 44.9646 26.8135C45.005 26.968 45.0109 27.1295 44.9819 27.2866Z" fill="#0097E2"/>
</g>
</svg>
