<svg width="41" height="54" viewBox="0 0 41 54" fill="none" xmlns="http://www.w3.org/2000/svg">
<path opacity="0.4" d="M28.6875 13.5C28.2399 13.5 27.8107 13.3222 27.4942 13.0057C27.1778 12.6893 27 12.26 27 11.8125V7.95053e-06H2.53125C2.19968 -0.000824112 1.87118 0.0636612 1.56453 0.189782C1.25787 0.315903 0.97906 0.50119 0.744012 0.735062C0.508963 0.968935 0.322282 1.24681 0.194625 1.55283C0.066969 1.85885 0.00083793 2.18702 7.95053e-06 2.5186V51.4687C-0.000824112 51.8003 0.0636612 52.1288 0.189782 52.4354C0.315903 52.7421 0.501189 53.0209 0.735062 53.2559C0.968935 53.491 1.24681 53.6777 1.55283 53.8053C1.85885 53.933 2.18702 53.9991 2.5186 53.9999H37.9687C38.3003 54.0008 38.6288 53.9363 38.9354 53.8102C39.2421 53.684 39.5209 53.4987 39.7559 53.2649C39.991 53.031 40.1777 52.7531 40.3053 52.4471C40.433 52.1411 40.4991 51.8129 40.4999 51.4813V13.5H28.6875Z" fill="#0097E2"/>
<path d="M39.7617 11.0742L29.4363 0.738288C29.2007 0.503431 28.921 0.317339 28.6133 0.190658C28.3057 0.0639772 27.9761 -0.000808278 27.6434 7.61136e-06H27V11.8125C27 12.26 27.1778 12.6893 27.4943 13.0057C27.8107 13.3222 28.2399 13.5 28.6875 13.5H40.5V12.8566C40.5 12.5256 40.4348 12.1978 40.3081 11.892C40.1814 11.5862 39.9958 11.3083 39.7617 11.0742Z" fill="#0097E2"/>
<path d="M15.5569 40.8196C15.5571 42.0567 15.5545 43.2939 15.5605 44.531C15.5613 44.6899 15.5276 44.7446 15.3552 44.7442C12.871 44.7383 10.3868 44.7386 7.90262 44.7439C7.74461 44.7443 7.71446 44.6914 7.71465 44.5482C7.71825 42.063 7.71877 39.5778 7.71387 37.0926C7.71354 36.9303 7.76626 36.8955 7.91891 36.8958C10.3976 36.9005 12.8764 36.9016 15.3551 36.8955C15.5291 36.8951 15.5607 36.9497 15.56 37.1081C15.5541 38.3453 15.5567 39.5824 15.5569 40.8196ZM11.6199 43.0226C12.3009 43.0226 12.9818 43.0185 13.6627 43.0259C13.8099 43.0274 13.845 42.9796 13.8444 42.8389C13.8397 41.4928 13.8399 40.1466 13.8445 38.8005C13.845 38.662 13.8138 38.6121 13.6645 38.6128C12.3135 38.6184 10.9624 38.6182 9.61141 38.6127C9.46399 38.6121 9.42933 38.6589 9.42985 38.7991C9.43449 40.1452 9.43528 41.4914 9.42887 42.8375C9.42808 42.9956 9.4827 43.027 9.62599 43.0257C10.2906 43.0192 10.9552 43.0227 11.6199 43.0226Z" fill="white"/>
<path d="M11.6197 27.9002C10.3883 27.9003 9.15692 27.8972 7.92564 27.9039C7.7624 27.9048 7.71348 27.8644 7.71387 27.6958C7.71923 25.2213 7.7174 22.7466 7.71747 20.272C7.71747 20.0612 7.71799 20.061 7.93539 20.061C10.4036 20.061 12.8717 20.0611 15.3399 20.0613C15.5564 20.0613 15.5567 20.0617 15.5567 20.2727C15.5568 22.7419 15.5567 25.2111 15.5566 27.6803C15.5566 27.8995 15.5562 27.9 15.3301 27.9C14.0933 27.9002 12.8565 27.9 11.6197 27.9002ZM13.8412 26.1732C13.8412 26.0953 13.8412 26.0313 13.8412 25.9674C13.8412 24.6431 13.8413 23.3187 13.8413 21.9944C13.8413 21.7783 13.8412 21.7778 13.63 21.7778C12.3008 21.7777 10.9716 21.7777 9.64235 21.7779C9.43319 21.7779 9.43266 21.7783 9.4326 21.9964C9.4324 23.3262 9.43508 24.656 9.429 25.9858C9.42828 26.1419 9.46929 26.1878 9.62757 26.1871C10.9677 26.1813 12.3078 26.184 13.648 26.1835C13.7063 26.1835 13.7646 26.1775 13.8412 26.1732Z" fill="white"/>
<path d="M28.4664 27.8994C27.2296 27.8993 25.9928 27.8965 24.756 27.9028C24.5976 27.9035 24.5547 27.8573 24.555 27.7008C24.5593 25.2207 24.5592 22.7406 24.5547 20.2606C24.5544 20.1051 24.596 20.0571 24.7551 20.0573C27.2396 20.0619 29.7241 20.0618 32.2086 20.0571C32.3614 20.0569 32.4006 20.1029 32.4004 20.2515C32.3963 22.737 32.3964 25.2226 32.4001 27.7081C32.4003 27.8544 32.3647 27.9039 32.2095 27.9031C30.9618 27.8967 29.7141 27.8995 28.4664 27.8994ZM28.4928 21.7774C27.8118 21.7774 27.1308 21.7802 26.4499 21.7749C26.3179 21.7738 26.2708 21.8097 26.2713 21.9486C26.2758 23.3057 26.2755 24.6628 26.2713 26.0199C26.2709 26.1492 26.3094 26.1861 26.438 26.1857C27.7946 26.1817 29.1511 26.182 30.5076 26.1861C30.6378 26.1864 30.687 26.1563 30.6864 26.015C30.6814 24.6634 30.6815 23.3117 30.6862 21.9601C30.6867 21.8184 30.6494 21.7725 30.503 21.7741C29.833 21.7816 29.1629 21.7774 28.4928 21.7774Z" fill="white"/>
<path d="M21.6826 41.4934C22.7105 41.4934 23.7117 41.4934 24.728 41.4934C24.7327 41.5584 24.7395 41.6105 24.7397 41.6626C24.7406 42.1205 24.7352 42.5785 24.7434 43.0363C24.7459 43.1746 24.7009 43.2111 24.5674 43.2104C23.6792 43.2055 22.791 43.2079 21.9027 43.2079C21.8385 43.2079 21.7742 43.2079 21.6874 43.2079C21.6874 43.7211 21.6874 44.2189 21.6874 44.7282C20.0878 44.7282 18.511 44.7282 16.9196 44.7282C16.9196 44.1683 16.9196 43.6106 16.9196 43.0329C16.98 43.0295 17.0426 43.023 17.1052 43.0229C17.9935 43.0222 18.8817 43.0196 19.7699 43.025C19.9129 43.0259 19.9687 42.9956 19.968 42.8373C19.9618 41.4908 19.9624 40.1443 19.9674 38.7978C19.9679 38.6547 19.9289 38.6123 19.7839 38.6134C18.8957 38.6198 18.0075 38.6166 17.1192 38.6166C17.0551 38.6166 16.991 38.6166 16.916 38.6166C16.916 38.039 16.916 37.4807 16.916 36.8992C16.9816 36.8992 17.0398 36.8992 17.0979 36.8992C18.5637 36.8994 20.0296 36.9018 21.4954 36.8965C21.6458 36.896 21.6863 36.938 21.6857 37.0875C21.6802 38.4831 21.6825 39.8787 21.6825 41.2743C21.6826 41.3386 21.6826 41.4027 21.6826 41.4934Z" fill="white"/>
<path d="M20.1383 33.8429C20.1383 34.4188 20.1383 34.9767 20.1383 35.5442C19.0638 35.5442 17.9988 35.5442 16.916 35.5442C16.9123 35.4839 16.9058 35.4265 16.9057 35.3691C16.9048 34.9767 16.9012 34.5842 16.9075 34.1918C16.9095 34.0684 16.8799 34.019 16.745 34.0199C15.8951 34.0254 15.0452 34.0255 14.1953 34.0201C14.0562 34.0192 14.0195 34.0678 14.0219 34.1998C14.0288 34.5866 14.0239 34.9737 14.0237 35.3607C14.0236 35.4193 14.0237 35.4779 14.0237 35.545C13.4472 35.545 12.8893 35.545 12.3211 35.545C12.3173 35.4897 12.3113 35.4423 12.3112 35.3949C12.3107 34.4247 12.3143 33.4545 12.3071 32.4843C12.306 32.3324 12.3593 32.3034 12.4953 32.3061C12.882 32.3136 13.2691 32.3013 13.6556 32.3121C13.8115 32.3164 13.8456 32.2613 13.8446 32.1158C13.8388 31.2219 13.8452 30.328 13.8385 29.4342C13.8374 29.2829 13.881 29.2402 14.0308 29.2433C14.4828 29.2527 14.9352 29.2519 15.3872 29.2435C15.5277 29.2408 15.5604 29.2902 15.5597 29.4216C15.555 30.3208 15.5604 31.2202 15.5542 32.1195C15.5532 32.2678 15.5925 32.3136 15.745 32.3124C16.6385 32.3053 17.532 32.3117 18.4255 32.3062C18.5686 32.3054 18.6258 32.3354 18.6212 32.4938C18.6094 32.8914 18.6219 33.2895 18.6153 33.6874C18.6132 33.8103 18.6529 33.8471 18.7741 33.8452C19.1663 33.8388 19.5587 33.8429 19.9509 33.8429C20.0095 33.8429 20.0682 33.8429 20.1383 33.8429Z" fill="white"/>
<path d="M30.865 32.4913C30.7892 32.4913 30.7408 32.4913 30.6925 32.4913C28.7205 32.4913 26.7486 32.4912 24.7767 32.4911C24.5577 32.4911 24.5572 32.4908 24.557 32.2665C24.5567 31.8251 24.5606 31.3835 24.5547 30.9422C24.5531 30.8167 24.5882 30.772 24.7203 30.7748C25.1124 30.7834 25.5047 30.7779 25.8969 30.7779C25.955 30.7779 26.0132 30.7779 26.0928 30.7779C26.0928 30.5518 26.0928 30.3461 26.0928 30.1404C26.0928 29.8843 26.0937 29.6282 26.0924 29.372C26.0921 29.2994 26.1 29.2454 26.1952 29.2459C26.7228 29.2482 27.2503 29.247 27.7985 29.247C27.7985 29.7573 27.7985 30.255 27.7985 30.7653C28.256 30.7653 28.6929 30.7653 29.1461 30.7653C29.1461 30.2639 29.1461 29.7701 29.1461 29.2568C29.2182 29.2527 29.2756 29.2468 29.3329 29.2467C30.2916 29.2463 31.2504 29.2501 32.2091 29.2432C32.3631 29.2421 32.4029 29.2896 32.4 29.4372C32.3917 29.8839 32.3971 30.3309 32.3972 30.7777C32.3972 30.831 32.3972 30.8844 32.3972 30.9614C32.3142 30.9614 32.2506 30.9614 32.187 30.9614C31.8329 30.9614 31.4788 30.9603 31.1247 30.962C30.848 30.9634 30.866 30.9271 30.8654 31.2298C30.8646 31.5841 30.8651 31.9383 30.865 32.2925C30.865 32.3516 30.865 32.4107 30.865 32.4913Z" fill="white"/>
<path d="M21.6824 24.8354C21.6824 25.3526 21.6824 25.8466 21.6824 26.3533C21.109 26.3533 20.5511 26.3533 19.9701 26.3533C19.9701 25.8563 19.9701 25.3583 19.9701 24.8411C18.9424 24.8411 17.9373 24.8411 16.9185 24.8411C16.9185 23.7525 16.9185 22.6834 16.9185 21.605C17.4827 21.605 18.0403 21.605 18.6169 21.605C18.6169 21.9531 18.6152 22.2895 18.6177 22.6259C18.6189 22.7828 18.5684 23.0054 18.6495 23.0791C18.7422 23.1633 18.9551 23.1229 19.1159 23.1232C20.4067 23.1254 21.6975 23.1244 22.9884 23.1244C23.0527 23.1244 23.1171 23.1244 23.1933 23.1244C23.1992 23.1862 23.2074 23.233 23.2075 23.2797C23.2085 23.7429 23.2028 24.2062 23.2115 24.6691C23.2142 24.8119 23.1616 24.8412 23.0321 24.8387C22.6565 24.8312 22.2805 24.8357 21.9047 24.8355C21.8402 24.8353 21.7756 24.8354 21.6824 24.8354Z" fill="white"/>
<path d="M21.4948 29.247C21.4948 28.7288 21.4948 28.2397 21.4948 27.7349C22.0656 27.7349 22.6229 27.7349 23.1944 27.7349C23.1944 28.8009 23.1944 29.8707 23.1944 30.9512C21.1045 30.9512 19.0197 30.9512 16.9161 30.9512C16.9123 30.8913 16.9059 30.8342 16.9058 30.777C16.9049 30.33 16.9109 29.8828 16.902 29.4359C16.8991 29.288 16.9388 29.2428 17.092 29.2435C18.4762 29.2496 19.8604 29.247 21.2446 29.247C21.3197 29.247 21.3949 29.247 21.4948 29.247Z" fill="white"/>
<path d="M10.9635 34.0235C10.5421 34.0235 10.1456 34.0235 9.74923 34.0235C9.43209 34.0236 9.43216 34.0237 9.43209 34.3464C9.43196 34.6842 9.43209 35.022 9.43118 35.3598C9.43105 35.4182 9.42608 35.4765 9.42294 35.5435C8.8523 35.5435 8.29506 35.5435 7.7167 35.5435C7.7167 35.469 7.7167 35.4053 7.7167 35.3416C7.71657 33.3802 7.71631 31.4189 7.71631 29.4575C7.71631 29.2467 7.71683 29.2466 7.93279 29.2466C8.36844 29.2467 8.80436 29.2544 9.23974 29.2434C9.40214 29.2393 9.43687 29.2935 9.43569 29.4466C9.42882 30.3401 9.43556 31.2336 9.42948 32.1271C9.4285 32.2703 9.46761 32.3152 9.61267 32.312C10.0155 32.303 10.4186 32.3066 10.8215 32.3135C10.8693 32.3144 10.957 32.3658 10.9575 32.3949C10.9657 32.9276 10.9635 33.4606 10.9635 34.0235Z" fill="white"/>
<path d="M30.8535 41.6745C29.8392 41.6745 28.8378 41.6745 27.8154 41.6745C27.8154 42.6937 27.8154 43.7037 27.8154 44.7274C27.2373 44.7274 26.6799 44.7274 26.1074 44.7274C26.1074 43.1472 26.1074 41.5661 26.1074 39.9749C27.6871 39.9749 29.2643 39.9749 30.8535 39.9749C30.8535 40.5356 30.8535 41.0938 30.8535 41.6745Z" fill="white"/>
<path d="M27.7947 38.6162C27.3219 38.6162 26.8652 38.6161 26.4085 38.6162C26.0923 38.6162 26.0922 38.6164 26.0922 38.2946C26.0922 37.4499 26.0925 36.6052 26.0919 35.7605C26.0918 35.6964 26.0857 35.6323 26.0816 35.554C25.5746 35.554 25.0807 35.554 24.5766 35.554C24.5689 35.4998 24.558 35.4588 24.5579 35.4177C24.5566 34.9436 24.5579 34.4694 24.5562 33.9953C24.5558 33.9052 24.5601 33.8399 24.6825 33.8403C25.6958 33.8441 26.7089 33.8428 27.7221 33.8435C27.7431 33.8435 27.764 33.8502 27.7947 33.8554C27.7947 35.4358 27.7947 37.0134 27.7947 38.6162Z" fill="white"/>
<path d="M29.1509 43.0331C29.2215 43.0288 29.2694 43.0234 29.3174 43.0233C30.2809 43.0228 31.2444 43.0258 32.2079 43.0195C32.3569 43.0186 32.4036 43.0584 32.4003 43.2107C32.3905 43.668 32.3937 44.1256 32.399 44.583C32.4004 44.702 32.3661 44.7438 32.2419 44.7432C31.2567 44.7387 30.2714 44.7402 29.2861 44.7413C29.2086 44.7413 29.1488 44.7408 29.1494 44.634C29.1528 44.1062 29.1509 43.5784 29.1509 43.0331Z" fill="white"/>
<path d="M23.209 20.0814C23.209 20.2789 23.2089 20.474 23.209 20.6689C23.2091 20.9848 23.2057 21.3009 23.2116 21.6166C23.2137 21.7302 23.1899 21.7815 23.0601 21.7808C22.0801 21.7759 21.1001 21.7762 20.1201 21.7805C19.9965 21.781 19.9616 21.7394 19.9629 21.62C19.9684 21.1517 19.966 20.6832 19.9644 20.2148C19.9641 20.1245 19.9687 20.0589 20.0913 20.0593C21.0931 20.0631 22.0949 20.0616 23.0967 20.0625C23.128 20.0625 23.1592 20.0727 23.209 20.0814Z" fill="white"/>
<path d="M23.1967 35.5477C22.6284 35.5477 22.075 35.5477 21.507 35.5477C21.5036 35.4891 21.4978 35.4366 21.4978 35.3842C21.4973 34.4199 21.5004 33.4555 21.4942 32.4913C21.4932 32.3474 21.5324 32.3046 21.677 32.3072C22.1397 32.3158 22.6027 32.3122 23.0655 32.3085C23.1661 32.3077 23.2116 32.3323 23.2112 32.4446C23.2077 33.447 23.2091 34.4494 23.2085 35.4519C23.2085 35.4785 23.2021 35.5051 23.1967 35.5477Z" fill="white"/>
<path d="M29.1592 35.5382C29.1592 34.9737 29.1592 34.4199 29.1592 33.8529C29.2194 33.8493 29.272 33.8434 29.3245 33.8433C30.2889 33.8426 31.2532 33.8457 32.2175 33.8394C32.3614 33.8385 32.4035 33.8771 32.4006 34.0223C32.3912 34.4854 32.3961 34.9487 32.3977 35.4121C32.398 35.4981 32.3896 35.5552 32.2768 35.5548C31.258 35.5513 30.2392 35.5525 29.2203 35.5519C29.205 35.5519 29.1895 35.5452 29.1592 35.5382Z" fill="white"/>
<path d="M23.041 36.9121C23.6073 36.9121 24.1644 36.9121 24.7401 36.9121C24.7401 36.9765 24.7401 37.0295 24.7401 37.0826C24.7402 38.041 24.7368 38.9994 24.7437 39.9577C24.7448 40.1101 24.6997 40.1508 24.5515 40.1478C24.1053 40.1389 23.6589 40.1448 23.2126 40.1448C23.1595 40.1448 23.1064 40.1448 23.0411 40.1448C23.041 39.0582 23.041 37.9895 23.041 36.9121Z" fill="white"/>
<path d="M11.6318 30.9622C11.3923 30.9622 11.1526 30.9594 10.9131 30.9637C10.8172 30.9654 10.7775 30.9359 10.7783 30.8335C10.7823 30.3488 10.7819 29.8639 10.7787 29.3792C10.778 29.2826 10.8073 29.244 10.9091 29.2449C11.3936 29.2489 11.8783 29.2487 12.3629 29.2454C12.4593 29.2448 12.498 29.2728 12.4972 29.375C12.4931 29.8598 12.4924 30.3446 12.4976 30.8293C12.4988 30.944 12.4494 30.9654 12.3506 30.9635C12.1111 30.959 11.8714 30.962 11.6318 30.9622Z" fill="white"/>
<path d="M31.5209 38.6167C31.2925 38.6165 31.064 38.6123 30.8357 38.6183C30.7276 38.6212 30.6798 38.5933 30.6812 38.4738C30.6865 37.9951 30.6855 37.5163 30.6812 37.0376C30.6803 36.9302 30.7183 36.8975 30.8238 36.8985C31.2968 36.9029 31.77 36.9027 32.2431 36.8985C32.3505 36.8975 32.4002 36.9227 32.3989 37.0427C32.3936 37.5214 32.3945 38.0002 32.3985 38.4789C32.3995 38.5866 32.3598 38.621 32.255 38.6186C32.0104 38.6131 31.7656 38.6169 31.5209 38.6167Z" fill="white"/>
<path d="M18.6173 27.0322C18.6171 27.2775 18.6139 27.5228 18.6187 27.768C18.6206 27.8656 18.5887 27.9031 18.488 27.9024C18.0031 27.8988 17.5182 27.8987 17.0333 27.9024C16.9303 27.9032 16.9038 27.8607 16.9044 27.766C16.9072 27.2864 16.9077 26.8067 16.9038 26.3271C16.903 26.2229 16.9359 26.1828 17.0439 26.1838C17.5233 26.1878 18.0027 26.1878 18.4821 26.1834C18.5927 26.1823 18.6216 26.2265 18.6193 26.329C18.6139 26.5633 18.6176 26.7978 18.6173 27.0322Z" fill="white"/>
<path d="M18.6039 41.6686C18.0385 41.6686 17.4853 41.6686 16.9185 41.6686C16.9185 41.1046 16.9185 40.5476 16.9185 39.9778C17.4758 39.9778 18.0333 39.9778 18.6039 39.9778C18.6039 40.535 18.6039 41.0921 18.6039 41.6686Z" fill="white"/>
<path d="M12.4866 39.9766C12.4866 40.5416 12.4866 41.0951 12.4866 41.6617C11.9219 41.6617 11.3641 41.6617 10.7925 41.6617C10.7925 41.105 10.7925 40.5473 10.7925 39.9766C11.352 39.9766 11.9098 39.9766 12.4866 39.9766Z" fill="white"/>
<path d="M10.7805 23.1252C11.3402 23.1252 11.8725 23.1235 12.4047 23.1297C12.4351 23.13 12.4904 23.1945 12.4908 23.2296C12.4964 23.7302 12.4967 24.2308 12.4899 24.7313C12.4895 24.7666 12.4235 24.8307 12.3872 24.8312C11.887 24.8381 11.3865 24.838 10.8862 24.8326C10.8507 24.8322 10.7853 24.7777 10.785 24.7478C10.7788 24.2157 10.7805 23.6836 10.7805 23.1252Z" fill="white"/>
<path d="M29.3361 23.126C29.3361 23.4772 29.3361 23.8026 29.3361 24.128C29.3361 24.3184 29.3331 24.5089 29.3374 24.6993C29.3395 24.7915 29.3174 24.8386 29.2117 24.8377C28.7222 24.8335 28.2327 24.8344 27.7433 24.8367C27.6537 24.8372 27.6181 24.8072 27.6187 24.714C27.6218 24.2243 27.618 23.7346 27.6241 23.245C27.6246 23.205 27.6809 23.1316 27.7121 23.1312C28.2442 23.124 28.7763 23.126 29.3361 23.126Z" fill="white"/>
</svg>
