<svg width="136" height="84" viewBox="0 0 136 84" fill="none" xmlns="http://www.w3.org/2000/svg">
<path d="M21.5001 2.26412L27.2474 13.9378L27.4798 14.4098L28.0004 14.4856L40.855 16.3586L31.5511 25.4511L31.1758 25.8178L31.2643 26.3349L33.4604 39.1699L21.9663 33.1119L21.5 32.8662L21.0337 33.1119L9.53961 39.1699L11.7357 26.3349L11.8242 25.8178L11.4489 25.4511L2.14502 16.3587L15.0007 14.4856L15.5213 14.4098L15.7537 13.9377L21.5001 2.26412Z" stroke="url(#paint0_linear)" stroke-width="2"/>
<path d="M21.5001 45.2642L27.2474 56.9384L27.4798 57.4105L28.0004 57.4863L40.8548 59.3584L31.5511 68.4504L31.1758 68.8171L31.2643 69.3343L33.4604 82.1698L21.9663 76.1111L21.5 75.8653L21.0337 76.1111L9.53962 82.1698L11.7357 69.3343L11.8242 68.8171L11.4489 68.4504L2.14519 59.3584L15.0006 57.4863L15.5213 57.4105L15.7537 56.9384L21.5001 45.2642Z" stroke="url(#paint1_linear)" stroke-width="2"/>
<path fill-rule="evenodd" clip-rule="evenodd" d="M102.309 48.2233V13.7354H133.997V48.2233H102.309ZM100.309 13.3289C100.309 12.4488 101.022 11.7354 101.902 11.7354H134.404C135.284 11.7354 135.997 12.4488 135.997 13.3289V48.6297C135.997 49.5098 135.284 50.2233 134.404 50.2233H101.902C101.022 50.2233 100.309 49.5098 100.309 48.6297V13.3289ZM91.5267 14.6955H55.8381V12.6955H91.5267V14.6955ZM91.5267 26.5389H55.8381V24.5389H91.5267V26.5389ZM55.8381 38.9714H91.5267V36.9714H55.8381V38.9714ZM91.5267 50.815H55.8381V48.815H91.5267V50.815ZM55.8381 63.252H136V61.252H55.8381V63.252ZM136 74.4997H55.8381V72.4997H136V74.4997Z" fill="#19153E"/>
<path fill-rule="evenodd" clip-rule="evenodd" d="M102.309 48.2233V13.7354H133.997V48.2233H102.309ZM100.309 13.3289C100.309 12.4488 101.022 11.7354 101.902 11.7354H134.404C135.284 11.7354 135.997 12.4488 135.997 13.3289V48.6297C135.997 49.5098 135.284 50.2233 134.404 50.2233H101.902C101.022 50.2233 100.309 49.5098 100.309 48.6297V13.3289ZM91.5267 14.6955H55.8381V12.6955H91.5267V14.6955ZM91.5267 26.5389H55.8381V24.5389H91.5267V26.5389ZM55.8381 38.9714H91.5267V36.9714H55.8381V38.9714ZM91.5267 50.815H55.8381V48.815H91.5267V50.815ZM55.8381 63.252H136V61.252H55.8381V63.252ZM136 74.4997H55.8381V72.4997H136V74.4997Z" fill="url(#paint2_linear)" fill-opacity="0.8"/>
<defs>
<linearGradient id="paint0_linear" x1="4" y1="21" x2="64" y2="21" gradientUnits="userSpaceOnUse">
<stop stop-color="#2A79BA"/>
<stop offset="1" stop-color="#0694D9"/>
</linearGradient>
<linearGradient id="paint1_linear" x1="10" y1="64" x2="62.5" y2="64" gradientUnits="userSpaceOnUse">
<stop stop-color="#2A79BA"/>
<stop offset="1" stop-color="#0694D9"/>
</linearGradient>
<linearGradient id="paint2_linear" x1="64.2467" y1="47.5111" x2="123.712" y2="41.5829" gradientUnits="userSpaceOnUse">
<stop stop-color="#2D91D9"/>
<stop offset="1" stop-color="#00B2FF"/>
</linearGradient>
</defs>
</svg>
