<svg width="1440" height="606" viewBox="0 0 1440 606" fill="none" xmlns="http://www.w3.org/2000/svg">
<path d="M322.48 334.693H-1934.86L-1934.6 333.123H322.74C348.94 332.985 371.82 316.424 388.9 285.286C388.9 285.286 495.27 89.5565 517.31 48.8014C539.35 8.04631 558.03 0.137779 584.87 0L708.55 0.137779L2905 0V16.5335L2898.93 16.5348V32.4962L2892.87 32.4974V48.4603L2886.8 48.4615V64.4197L2880.73 64.421V80.3834L2874.67 80.3846V96.3463L2868.6 96.3475V112.309L2862.53 112.311V128.269L2856.46 128.27V144.233L2850.4 144.235V160.14L2844.33 160.141V176.104L2838.26 176.106V192.064L2832.2 192.065V208.027L2826.13 208.029V223.99L2820.06 223.991V239.954L2814 239.955V255.917L2807.93 255.918V271.876L2801.86 271.878V287.84L605.4 287.978L494.87 287.84C493.84 287.845 492.81 287.848 491.77 287.85H491.76C466.02 287.906 434.78 287.975 408.34 334.685C380.81 383.294 286.84 557.199 286.84 557.199C269.41 588.971 246.06 605.862 219.35 606H-2038L-2037.74 604.429H219.61C245.8 604.292 268.68 587.731 285.76 556.592C285.76 556.592 392.13 360.863 414.17 320.108C416.97 314.935 419.71 310.292 422.42 306.126C419.71 309.894 417.03 314.077 414.4 318.721C386.88 367.33 292.91 541.235 292.91 541.235C275.48 573.007 252.13 589.898 225.41 590.036H-2031.93L-2031.67 588.466H225.67C251.87 588.328 274.75 571.767 291.82 540.629C291.82 540.629 398.2 344.899 420.23 304.144C423.01 299.008 425.74 294.393 428.43 290.25C425.74 293.996 423.08 298.152 420.47 302.762C392.95 351.37 298.98 525.275 298.98 525.275C281.55 557.047 258.2 573.939 231.48 574.077H-2025.87L-2025.6 572.506H231.74C257.94 572.368 280.81 555.807 297.89 524.669C297.89 524.669 404.26 328.94 426.3 288.185C429.09 283.027 431.83 278.395 434.53 274.238C431.83 277.997 429.16 282.169 426.54 286.799C399.01 335.407 305.04 509.312 305.04 509.312C287.61 541.084 264.27 557.976 237.55 558.114H-2019.8L-2019.54 556.543H237.81C264 556.405 286.88 539.844 303.96 508.706C303.96 508.706 410.33 312.977 432.37 272.222C435.16 267.067 437.89 262.439 440.59 258.284C437.89 262.041 435.22 266.209 432.61 270.835C405.08 319.444 311.11 493.349 311.11 493.349C293.68 525.12 270.33 542.012 243.61 542.15H-2013.73L-2013.47 540.579H243.88C270.07 540.442 292.95 523.88 310.03 492.742C310.03 492.742 416.4 297.013 438.44 256.258C441.23 251.09 443.97 246.451 446.68 242.288C443.97 246.053 441.3 250.233 438.67 254.872C411.15 303.481 317.18 477.386 317.18 477.386C299.75 509.158 276.4 526.05 249.68 526.187H-2007.67L-2007.4 524.617H249.94C276.14 524.479 299.01 507.918 316.09 476.78C316.09 476.78 422.46 281.05 444.5 240.295C447.3 235.124 450.04 230.481 452.76 226.316C450.04 230.083 447.36 234.265 444.74 238.909C417.21 287.517 323.24 461.422 323.24 461.422C305.81 493.194 282.46 510.086 255.74 510.224H-2001.6L-2001.34 508.653H256.01C282.2 508.515 305.08 491.954 322.16 460.816C322.16 460.816 428.53 265.087 450.57 224.332C453.35 219.195 456.07 214.581 458.76 210.438C456.07 214.184 453.41 218.339 450.8 222.949C423.28 271.558 329.31 445.463 329.31 445.463C311.88 477.235 288.53 494.126 261.81 494.264H-1995.53L-1995.27 492.694H262.08C288.27 492.556 311.15 475.995 328.23 444.857C328.23 444.857 434.6 249.127 456.64 208.372C459.43 203.203 462.17 198.562 464.88 194.399C462.17 198.165 459.5 202.345 456.87 206.985C429.35 255.593 335.38 429.498 335.38 429.498C317.95 461.27 294.6 478.162 267.88 478.3H-1989.47L-1989.2 476.729H268.14C294.34 476.591 317.21 460.03 334.29 428.892C334.29 428.892 440.66 233.163 462.7 192.408C465.36 187.501 467.96 183.071 470.54 179.073C467.97 182.686 465.43 186.675 462.94 191.078C435.42 239.687 341.44 413.592 341.44 413.592C324.02 445.364 300.67 462.256 273.95 462.393H-1983.4L-1983.14 460.823H274.21C300.4 460.685 323.28 444.124 340.36 412.986C340.36 412.986 446.73 217.256 468.77 176.501C471.57 171.332 474.31 166.692 477.02 162.528C474.31 166.294 471.63 170.474 469 175.114C441.48 223.723 347.51 397.628 347.51 397.628C330.08 429.4 306.73 446.291 280.01 446.429H-1977.33L-1977.07 444.858H280.28C306.47 444.721 329.35 428.159 346.43 397.021C346.43 397.021 452.8 201.292 474.84 160.537C477.61 155.406 480.33 150.795 483.03 146.655C480.34 150.398 477.68 154.549 475.07 159.154C447.55 207.763 353.58 381.668 353.58 381.668C336.15 413.44 312.8 430.332 286.08 430.469H-1971.26L-1971 428.899H286.35C312.54 428.761 335.42 412.2 352.5 381.062C352.5 381.062 458.87 185.332 480.91 144.577C483.7 139.408 486.44 134.767 489.16 130.603C486.44 134.369 483.77 138.55 481.14 143.191C453.62 191.8 359.65 365.705 359.65 365.705C342.22 397.477 318.87 414.368 292.15 414.506H-1965.2L-1964.93 412.935H292.41C318.61 412.798 341.48 396.237 358.56 365.099C358.56 365.099 464.93 169.369 486.97 128.614C489.77 123.446 492.51 118.805 495.22 114.642C492.51 118.408 489.83 122.588 487.2 127.228C459.68 175.837 365.71 349.742 365.71 349.742C348.28 381.514 324.93 398.406 298.21 398.543H-1959.13L-1958.87 396.973H298.48C324.67 396.835 347.55 380.274 364.63 349.136C364.63 349.136 471 153.406 493.04 112.651C495.82 107.503 498.55 102.879 501.25 98.7281C498.55 102.481 495.89 106.645 493.27 111.265C465.75 159.873 371.78 333.778 371.78 333.778C354.35 365.55 331 382.442 304.28 382.58H-1953.06L-1952.8 381.009H304.54C330.74 380.871 353.62 364.31 370.7 333.172C370.7 333.172 477.07 137.443 499.11 96.6877C501.89 91.5396 504.62 86.9157 507.32 82.7653C504.62 86.5188 501.96 90.6837 499.34 95.3052C471.82 143.914 377.85 317.819 377.85 317.819C360.42 349.591 337.07 366.482 310.35 366.62H-1947L-1946.73 365.049H310.61C336.81 364.912 359.68 348.351 376.76 317.213C376.76 317.213 483.13 121.483 505.17 80.7282C507.96 75.5719 510.7 70.9413 513.4 66.7857C510.7 70.5433 508.03 74.7133 505.41 79.3411C477.89 127.95 383.91 301.855 383.91 301.855C366.49 333.627 343.14 350.518 316.42 350.656H-1940.93L-1940.67 349.085H316.68C342.87 348.948 365.75 332.387 382.83 301.248C382.83 301.248 489.2 105.519 511.24 64.7641C514.04 59.5967 516.78 54.9574 519.49 50.795C516.77 54.5598 514.1 58.7391 511.47 63.3785C483.95 111.987 389.98 285.892 389.98 285.892C372.55 317.664 349.2 334.556 322.48 334.693Z" fill="#0097E2" fill-opacity="0.2"/>
<path d="M322.48 334.693H-1934.86L-1934.6 333.123H322.74C348.94 332.985 371.82 316.424 388.9 285.286C388.9 285.286 495.27 89.5565 517.31 48.8014C539.35 8.04631 558.03 0.137779 584.87 0L708.55 0.137779L2905 0V16.5335L2898.93 16.5348V32.4962L2892.87 32.4974V48.4603L2886.8 48.4615V64.4197L2880.73 64.421V80.3834L2874.67 80.3846V96.3463L2868.6 96.3475V112.309L2862.53 112.311V128.269L2856.46 128.27V144.233L2850.4 144.235V160.14L2844.33 160.141V176.104L2838.26 176.106V192.064L2832.2 192.065V208.027L2826.13 208.029V223.99L2820.06 223.991V239.954L2814 239.955V255.917L2807.93 255.918V271.876L2801.86 271.878V287.84L605.4 287.978L494.87 287.84C493.84 287.845 492.81 287.848 491.77 287.85H491.76C466.02 287.906 434.78 287.975 408.34 334.685C380.81 383.294 286.84 557.199 286.84 557.199C269.41 588.971 246.06 605.862 219.35 606H-2038L-2037.74 604.429H219.61C245.8 604.292 268.68 587.731 285.76 556.592C285.76 556.592 392.13 360.863 414.17 320.108C416.97 314.935 419.71 310.292 422.42 306.126C419.71 309.894 417.03 314.077 414.4 318.721C386.88 367.33 292.91 541.235 292.91 541.235C275.48 573.007 252.13 589.898 225.41 590.036H-2031.93L-2031.67 588.466H225.67C251.87 588.328 274.75 571.767 291.82 540.629C291.82 540.629 398.2 344.899 420.23 304.144C423.01 299.008 425.74 294.393 428.43 290.25C425.74 293.996 423.08 298.152 420.47 302.762C392.95 351.37 298.98 525.275 298.98 525.275C281.55 557.047 258.2 573.939 231.48 574.077H-2025.87L-2025.6 572.506H231.74C257.94 572.368 280.81 555.807 297.89 524.669C297.89 524.669 404.26 328.94 426.3 288.185C429.09 283.027 431.83 278.395 434.53 274.238C431.83 277.997 429.16 282.169 426.54 286.799C399.01 335.407 305.04 509.312 305.04 509.312C287.61 541.084 264.27 557.976 237.55 558.114H-2019.8L-2019.54 556.543H237.81C264 556.405 286.88 539.844 303.96 508.706C303.96 508.706 410.33 312.977 432.37 272.222C435.16 267.067 437.89 262.439 440.59 258.284C437.89 262.041 435.22 266.209 432.61 270.835C405.08 319.444 311.11 493.349 311.11 493.349C293.68 525.12 270.33 542.012 243.61 542.15H-2013.73L-2013.47 540.579H243.88C270.07 540.442 292.95 523.88 310.03 492.742C310.03 492.742 416.4 297.013 438.44 256.258C441.23 251.09 443.97 246.451 446.68 242.288C443.97 246.053 441.3 250.233 438.67 254.872C411.15 303.481 317.18 477.386 317.18 477.386C299.75 509.158 276.4 526.05 249.68 526.187H-2007.67L-2007.4 524.617H249.94C276.14 524.479 299.01 507.918 316.09 476.78C316.09 476.78 422.46 281.05 444.5 240.295C447.3 235.124 450.04 230.481 452.76 226.316C450.04 230.083 447.36 234.265 444.74 238.909C417.21 287.517 323.24 461.422 323.24 461.422C305.81 493.194 282.46 510.086 255.74 510.224H-2001.6L-2001.34 508.653H256.01C282.2 508.515 305.08 491.954 322.16 460.816C322.16 460.816 428.53 265.087 450.57 224.332C453.35 219.195 456.07 214.581 458.76 210.438C456.07 214.184 453.41 218.339 450.8 222.949C423.28 271.558 329.31 445.463 329.31 445.463C311.88 477.235 288.53 494.126 261.81 494.264H-1995.53L-1995.27 492.694H262.08C288.27 492.556 311.15 475.995 328.23 444.857C328.23 444.857 434.6 249.127 456.64 208.372C459.43 203.203 462.17 198.562 464.88 194.399C462.17 198.165 459.5 202.345 456.87 206.985C429.35 255.593 335.38 429.498 335.38 429.498C317.95 461.27 294.6 478.162 267.88 478.3H-1989.47L-1989.2 476.729H268.14C294.34 476.591 317.21 460.03 334.29 428.892C334.29 428.892 440.66 233.163 462.7 192.408C465.36 187.501 467.96 183.071 470.54 179.073C467.97 182.686 465.43 186.675 462.94 191.078C435.42 239.687 341.44 413.592 341.44 413.592C324.02 445.364 300.67 462.256 273.95 462.393H-1983.4L-1983.14 460.823H274.21C300.4 460.685 323.28 444.124 340.36 412.986C340.36 412.986 446.73 217.256 468.77 176.501C471.57 171.332 474.31 166.692 477.02 162.528C474.31 166.294 471.63 170.474 469 175.114C441.48 223.723 347.51 397.628 347.51 397.628C330.08 429.4 306.73 446.291 280.01 446.429H-1977.33L-1977.07 444.858H280.28C306.47 444.721 329.35 428.159 346.43 397.021C346.43 397.021 452.8 201.292 474.84 160.537C477.61 155.406 480.33 150.795 483.03 146.655C480.34 150.398 477.68 154.549 475.07 159.154C447.55 207.763 353.58 381.668 353.58 381.668C336.15 413.44 312.8 430.332 286.08 430.469H-1971.26L-1971 428.899H286.35C312.54 428.761 335.42 412.2 352.5 381.062C352.5 381.062 458.87 185.332 480.91 144.577C483.7 139.408 486.44 134.767 489.16 130.603C486.44 134.369 483.77 138.55 481.14 143.191C453.62 191.8 359.65 365.705 359.65 365.705C342.22 397.477 318.87 414.368 292.15 414.506H-1965.2L-1964.93 412.935H292.41C318.61 412.798 341.48 396.237 358.56 365.099C358.56 365.099 464.93 169.369 486.97 128.614C489.77 123.446 492.51 118.805 495.22 114.642C492.51 118.408 489.83 122.588 487.2 127.228C459.68 175.837 365.71 349.742 365.71 349.742C348.28 381.514 324.93 398.406 298.21 398.543H-1959.13L-1958.87 396.973H298.48C324.67 396.835 347.55 380.274 364.63 349.136C364.63 349.136 471 153.406 493.04 112.651C495.82 107.503 498.55 102.879 501.25 98.7281C498.55 102.481 495.89 106.645 493.27 111.265C465.75 159.873 371.78 333.778 371.78 333.778C354.35 365.55 331 382.442 304.28 382.58H-1953.06L-1952.8 381.009H304.54C330.74 380.871 353.62 364.31 370.7 333.172C370.7 333.172 477.07 137.443 499.11 96.6877C501.89 91.5396 504.62 86.9157 507.32 82.7653C504.62 86.5188 501.96 90.6837 499.34 95.3052C471.82 143.914 377.85 317.819 377.85 317.819C360.42 349.591 337.07 366.482 310.35 366.62H-1947L-1946.73 365.049H310.61C336.81 364.912 359.68 348.351 376.76 317.213C376.76 317.213 483.13 121.483 505.17 80.7282C507.96 75.5719 510.7 70.9413 513.4 66.7857C510.7 70.5433 508.03 74.7133 505.41 79.3411C477.89 127.95 383.91 301.855 383.91 301.855C366.49 333.627 343.14 350.518 316.42 350.656H-1940.93L-1940.67 349.085H316.68C342.87 348.948 365.75 332.387 382.83 301.248C382.83 301.248 489.2 105.519 511.24 64.7641C514.04 59.5967 516.78 54.9574 519.49 50.795C516.77 54.5598 514.1 58.7391 511.47 63.3785C483.95 111.987 389.98 285.892 389.98 285.892C372.55 317.664 349.2 334.556 322.48 334.693Z" fill="url(#paint0_linear)"/>
<defs>
<linearGradient id="paint0_linear" x1="-120.5" y1="606" x2="551" y2="606" gradientUnits="userSpaceOnUse">
<stop stop-color="#015AA5"/>
<stop offset="1" stop-color="#015AA5" stop-opacity="0"/>
</linearGradient>
</defs>
</svg>
