<svg width="38" height="39" viewBox="0 0 38 39" fill="none" xmlns="http://www.w3.org/2000/svg">
<circle cx="19" cy="19.5" r="19" fill="#D8F8FF"/>
<path d="M26.3333 8.4375H26.5C26.7761 8.4375 27 8.19613 27 7.89844V7.53906C27 7.24137 26.7761 7 26.5 7H11.5C11.2239 7 11 7.24137 11 7.53906V7.89844C11 8.19613 11.2239 8.4375 11.5 8.4375H11.6667C11.6667 12.5623 13.5045 17.1369 17.0686 18.5C13.493 19.8675 11.6667 24.4511 11.6667 28.5625H11.5C11.2239 28.5625 11 28.8039 11 29.1016V29.4609C11 29.7586 11.2239 30 11.5 30H26.5C26.7761 30 27 29.7586 27 29.4609V29.1016C27 28.8039 26.7761 28.5625 26.5 28.5625H26.3333C26.3333 24.4377 24.4955 19.8631 20.9314 18.5C24.507 17.1325 26.3333 12.5489 26.3333 8.4375ZM13 8.4375H25C25 13.3994 22.3137 17.4219 19 17.4219C15.6863 17.4219 13 13.3994 13 8.4375ZM25 28.5625H13C13 23.6006 15.6863 19.5781 19 19.5781C22.3137 19.5781 25 23.6006 25 28.5625Z" fill="#142948"/>
</svg>
