<svg width="38" height="39" viewBox="0 0 38 39" fill="none" xmlns="http://www.w3.org/2000/svg">
<circle cx="19" cy="19.5" r="19" fill="#D8F8FF"/>
<path d="M30.625 27H8.5V10.875C8.5 10.6678 8.33219 10.5 8.125 10.5H7.375C7.16781 10.5 7 10.6678 7 10.875V27.75C7 28.1644 7.33562 28.5 7.75 28.5H30.625C30.8322 28.5 31 28.3322 31 28.125V27.375C31 27.1678 30.8322 27 30.625 27ZM11.6097 19.8295C11.4634 19.9758 11.4634 20.2134 11.6097 20.3597L12.1398 20.8898C12.2861 21.0361 12.5238 21.0361 12.67 20.8898L16.0773 17.5144L20.0472 21.4842C20.3402 21.7772 20.815 21.7772 21.108 21.4842L25.4922 17.1L27.5566 19.1644C27.7886 19.3964 28.0736 19.5 28.3534 19.5C28.9384 19.5 29.5 19.0453 29.5 18.3591V12.7589C29.5 12.3398 29.1602 12 28.7411 12H23.1409C22.1266 12 21.6189 13.2263 22.3361 13.9434L24.4319 16.0392L20.5778 19.8933L16.6108 15.9262C16.3187 15.6342 15.8458 15.6333 15.5528 15.9239L11.6097 19.8295ZM24.0138 13.5H28V17.4862L24.0138 13.5Z" fill="#142948"/>
</svg>
