<svg width="38" height="39" viewBox="0 0 38 39" fill="none" xmlns="http://www.w3.org/2000/svg">
<circle cx="19" cy="19.5" r="19" fill="#D8F8FF"/>
<path d="M19 10C12.3725 10 7 15.1806 7 21.5714C7 23.6929 7.59375 25.6801 8.6275 27.3893C8.86125 27.7758 9.30667 28 9.77083 28H28.2292C28.6933 28 29.1388 27.7758 29.3725 27.3893C30.4062 25.6801 31 23.6929 31 21.5714C31 15.1806 25.6275 10 19 10ZM28.2292 26.7143L9.77917 26.7416C8.83333 25.1775 8.33333 23.3899 8.33333 21.5714C8.33333 15.8998 13.1183 11.2857 19 11.2857C24.8817 11.2857 29.6667 15.8998 29.6667 21.5714C29.6667 23.3899 29.1667 25.1775 28.2292 26.7143Z" fill="#142948"/>
<path d="M21.4265 21.125C20.6606 21.125 19.975 21.4424 19.5037 21.9451L16.9462 20.4293C17.2033 19.8352 17.206 19.1648 16.9462 18.5707L19.5037 17.0549C19.975 17.5576 20.6606 17.875 21.4265 17.875C22.8458 17.875 23.9973 16.7832 23.9973 15.4375C23.9973 14.0918 22.8458 13 21.4265 13C20.0071 13 18.8556 14.0918 18.8556 15.4375C18.8556 15.7676 18.9252 16.0799 19.0484 16.3668L16.491 17.8826C16.0223 17.3799 15.3368 17.0625 14.5709 17.0625C13.1515 17.0625 12 18.1543 12 19.5C12 20.8457 13.1515 21.9375 14.5709 21.9375C15.3368 21.9375 16.0223 21.6201 16.4936 21.1174L19.0511 22.6332C18.9252 22.9201 18.8583 23.2324 18.8583 23.5625C18.8583 24.9082 20.0098 26 21.4291 26C22.8485 26 24 24.9082 24 23.5625C23.9973 22.2168 22.8458 21.125 21.4265 21.125ZM21.4265 13.8125C22.3718 13.8125 23.1404 14.5412 23.1404 15.4375C23.1404 16.3338 22.3718 17.0625 21.4265 17.0625C20.4811 17.0625 19.7126 16.3338 19.7126 15.4375C19.7126 14.5412 20.4811 13.8125 21.4265 13.8125ZM14.5709 21.125C13.6255 21.125 12.857 20.3963 12.857 19.5C12.857 18.6037 13.6255 17.875 14.5709 17.875C15.5162 17.875 16.2848 18.6037 16.2848 19.5C16.2848 20.3963 15.5162 21.125 14.5709 21.125ZM21.4265 25.1875C20.4811 25.1875 19.7126 24.4588 19.7126 23.5625C19.7126 22.6662 20.4811 21.9375 21.4265 21.9375C22.3718 21.9375 23.1404 22.6662 23.1404 23.5625C23.1404 24.4588 22.3718 25.1875 21.4265 25.1875Z" fill="#142948"/>
</svg>
