<svg width="38" height="39" viewBox="0 0 38 39" fill="none" xmlns="http://www.w3.org/2000/svg">
<circle cx="19" cy="19.5" r="19" fill="#D8F8FF"/>
<path d="M22.4395 14.171C21.854 14.7325 21.854 15.6427 22.4395 16.2042C23.0255 16.7657 23.9752 16.7657 24.5611 16.2042C25.1466 15.6427 25.1466 14.7325 24.5611 14.171C23.9752 13.6099 23.0255 13.6099 22.4395 14.171ZM25.4396 11.296C24.8541 11.8575 24.8541 12.7676 25.4396 13.3292C26.0255 13.8907 26.9752 13.8907 27.5612 13.3292C28.1471 12.7676 28.1471 11.8575 27.5612 11.296C26.9752 10.7349 26.0255 10.7349 25.4396 11.296ZM28.0004 8H22.0003C20.3432 8 19.0002 9.28703 19.0002 10.875V16.6251C19.0002 17.1575 19.1615 17.6494 19.4245 18.077L7.10969 29.8786C6.96344 30.0188 6.96344 30.2465 7.10969 30.3867L7.63986 30.8948C7.78611 31.0349 8.02377 31.0349 8.17002 30.8948L10.4529 28.707L12.6279 30.7914C12.9167 31.0682 13.3873 31.0709 13.6793 30.7914L15.7822 28.7762C16.0724 28.4981 16.0724 28.0471 15.7822 27.7686L13.6072 25.6842L14.953 24.394L17.128 26.4784C17.4168 26.7552 17.8874 26.7579 18.1794 26.4784L20.2823 24.4632C20.5725 24.1851 20.5725 23.7341 20.2823 23.4556L18.1072 21.3712L20.4848 19.0927C20.9311 19.3447 21.4443 19.4993 21.9998 19.4993H27.9999C29.657 19.4993 31 18.2122 31 16.6242V10.875C31.0005 9.28703 29.6575 8 28.0004 8ZM14.2053 28.2726L13.1539 29.2803L11.5048 27.6999L12.5562 26.6923L14.2053 28.2726ZM18.7054 23.9601L17.654 24.9677L16.0044 23.3869L17.0558 22.3793L18.7054 23.9601ZM29.5004 16.6251C29.5004 17.4176 28.8273 18.0626 28.0004 18.0626H22.0003C21.1734 18.0626 20.5003 17.4176 20.5003 16.6251V10.875C20.5003 10.0826 21.1734 9.43752 22.0003 9.43752H28.0004C28.8273 9.43752 29.5004 10.0826 29.5004 10.875V16.6251Z" fill="#142948"/>
</svg>
