<svg width="38" height="39" viewBox="0 0 38 39" fill="none" xmlns="http://www.w3.org/2000/svg">
<circle cx="19" cy="19.5" r="19" fill="#D8F8FF"/>
<path d="M32.2832 18.5898L27.6176 16.832C27.4759 16.7773 27.322 16.75 27.1681 16.75C27.0142 16.75 26.8643 16.7773 26.7185 16.832L22.0529 18.5898C21.6196 18.7539 21.3361 19.1367 21.3361 19.5625C21.3361 23.9219 24.1184 26.9375 26.7185 27.918C26.8603 27.9727 27.0142 28 27.1681 28C27.322 28 27.4718 27.9727 27.6176 27.918C29.6953 27.1367 33.0001 24.4258 33.0001 19.5625C33.0001 19.1367 32.7166 18.7539 32.2832 18.5898ZM26.5201 26.4375C24.568 25.3906 22.6888 23.0156 22.6321 19.7148L26.5201 18.25V26.4375ZM27.1924 26.7539C27.1883 26.7539 27.1843 26.75 27.1843 26.75H27.2045C27.1964 26.75 27.1924 26.7539 27.1924 26.7539ZM27.8161 26.457V18.25L31.7041 19.7148C31.6433 23.418 29.3915 25.582 27.8161 26.457ZM9.02408 26.75C8.66768 26.75 8.37608 26.4688 8.37608 26.125V24.5C8.37608 22.293 10.235 20.5 12.5233 20.5C13.3171 20.5 14.1068 21.125 16.1521 21.125C18.1933 21.125 18.9871 20.5 19.7809 20.5C19.8862 20.5 19.9834 20.5234 20.0846 20.5312C20.0563 20.2148 20.0401 19.8945 20.0401 19.5625C20.0401 19.4648 20.0725 19.375 20.0846 19.2812C19.9834 19.2773 19.8862 19.25 19.7809 19.25C18.6185 19.25 18.0596 19.875 16.1521 19.875C14.2445 19.875 13.6897 19.25 12.5233 19.25C9.51818 19.25 7.08008 21.6016 7.08008 24.5V26.125C7.08008 27.1602 7.95083 28 9.02408 28H23.2801C23.5555 28 23.8187 27.9414 24.0577 27.8438C23.6405 27.5234 23.2396 27.1562 22.8548 26.75H9.02408ZM16.1521 18C19.0154 18 21.3361 15.7617 21.3361 13C21.3361 10.2383 19.0154 8 16.1521 8C13.2887 8 10.9681 10.2383 10.9681 13C10.9681 15.7617 13.2887 18 16.1521 18ZM16.1521 9.25C18.2945 9.25 20.0401 10.9336 20.0401 13C20.0401 15.0664 18.2945 16.75 16.1521 16.75C14.0096 16.75 12.2641 15.0664 12.2641 13C12.2641 10.9336 14.0096 9.25 16.1521 9.25Z" fill="#142948"/>
</svg>
