<svg width="38" height="38" viewBox="0 0 38 38" fill="none" xmlns="http://www.w3.org/2000/svg">
<circle cx="19" cy="19" r="19" fill="#D8F8FF"/>
<path d="M25.7481 15.663C25.5284 15.8735 25.5284 16.2148 25.7481 16.4254L28.1822 18.7364H9.81777L12.2519 16.4254C12.4716 16.2149 12.4716 15.8736 12.2519 15.663L11.9204 15.3454C11.7008 15.1349 11.3446 15.1349 11.125 15.3454L7.16474 19.1189C6.94509 19.3294 6.94509 19.6707 7.16474 19.8812L11.125 23.6547C11.3446 23.8652 11.7008 23.8652 11.9204 23.6547L12.2519 23.3371C12.4716 23.1266 12.4716 22.7853 12.2519 22.5747L9.81777 20.2637H28.1821L25.748 22.5747C25.5284 22.7852 25.5284 23.1265 25.748 23.337L26.0795 23.6546C26.2991 23.8651 26.6553 23.8651 26.8749 23.6546L30.8352 19.8812C31.0549 19.6707 31.0549 19.3294 30.8352 19.1188L26.8749 15.3454C26.6553 15.1349 26.2991 15.1349 26.0795 15.3454L25.7481 15.663Z" fill="black"/>
</svg>
